<?xml version="1.0" encoding="UTF-8"?>
<svg id="Layer_1" data-name="Layer 1" xmlns="http://www.w3.org/2000/svg" xmlns:xlink="http://www.w3.org/1999/xlink" viewBox="0 0 701 526">
  <defs>
    <style>
      .cls-1, .cls-2, .cls-3, .cls-4, .cls-5, .cls-6, .cls-7, .cls-8, .cls-9, .cls-10, .cls-11, .cls-12, .cls-13, .cls-14, .cls-15, .cls-16, .cls-17, .cls-18, .cls-19, .cls-20, .cls-21, .cls-22, .cls-23, .cls-24, .cls-25, .cls-26, .cls-27, .cls-28, .cls-29, .cls-30, .cls-31, .cls-32, .cls-33, .cls-34, .cls-35, .cls-36, .cls-37, .cls-38, .cls-39, .cls-40, .cls-41 {
        isolation: isolate;
      }

      .cls-1, .cls-2, .cls-3, .cls-4, .cls-5, .cls-6, .cls-7, .cls-9, .cls-10, .cls-12, .cls-13, .cls-16, .cls-17, .cls-19, .cls-21, .cls-23, .cls-24, .cls-26, .cls-29, .cls-31, .cls-32, .cls-35, .cls-36, .cls-37, .cls-38, .cls-41 {
        font-family: Roboto-Bold, Roboto;
        font-weight: 700;
      }

      .cls-1, .cls-2, .cls-16 {
        font-size: 16.8px;
      }

      .cls-2 {
        letter-spacing: .02em;
      }

      .cls-42 {
        fill: #f0f0f0;
      }

      .cls-3 {
        letter-spacing: 0em;
      }

      .cls-3, .cls-6, .cls-10 {
        font-size: 11.19px;
      }

      .cls-4 {
        letter-spacing: 0em;
      }

      .cls-4, .cls-21, .cls-29, .cls-32 {
        font-size: 12.6px;
      }

      .cls-5 {
        letter-spacing: -.1em;
      }

      .cls-5, .cls-7, .cls-9, .cls-12, .cls-36 {
        fill: #231f20;
        font-size: 6.84px;
      }

      .cls-6 {
        letter-spacing: 0em;
      }

      .cls-43 {
        fill: #fec572;
      }

      .cls-44, .cls-8, .cls-15, .cls-20, .cls-39 {
        fill: #fff;
      }

      .cls-45 {
        fill: #a8c0ff;
      }

      .cls-7 {
        letter-spacing: .02em;
      }

      .cls-8, .cls-46 {
        opacity: .8;
      }

      .cls-47 {
        fill: #b7bbc4;
      }

      .cls-48 {
        fill: #9fdbfd;
      }

      .cls-49 {
        fill: #fafafa;
      }

      .cls-50 {
        stroke: #b7bbc4;
      }

      .cls-50, .cls-51 {
        fill: none;
      }

      .cls-52, .cls-15, .cls-40 {
        opacity: .5;
      }

      .cls-53 {
        fill: #37474f;
      }

      .cls-54, .cls-30 {
        opacity: .9;
      }

      .cls-55 {
        fill: #f5f5f5;
      }

      .cls-56 {
        fill: #455a64;
      }

      .cls-12 {
        letter-spacing: 0em;
      }

      .cls-57 {
        fill: #efeadc;
      }

      .cls-13, .cls-17, .cls-19, .cls-23, .cls-24, .cls-41 {
        fill: #28241f;
        font-size: 23.91px;
      }

      .cls-58 {
        fill: #f28f8f;
      }

      .cls-14, .cls-20, .cls-59, .cls-28 {
        opacity: .6;
      }

      .cls-14, .cls-60, .cls-34 {
        fill: #407bff;
      }

      .cls-61 {
        fill: #e0e0e0;
      }

      .cls-62 {
        opacity: .7;
      }

      .cls-63, .cls-33 {
        opacity: .4;
      }

      .cls-16 {
        letter-spacing: -.01em;
      }

      .cls-17 {
        letter-spacing: -.02em;
      }

      .cls-64 {
        fill: #e6e6e6;
      }

      .cls-18, .cls-65 {
        opacity: .3;
      }

      .cls-19 {
        letter-spacing: -.03em;
      }

      .cls-21 {
        letter-spacing: 0em;
      }

      .cls-22 {
        opacity: .2;
      }

      .cls-23 {
        letter-spacing: .03em;
      }

      .cls-24 {
        letter-spacing: .02em;
      }

      .cls-66 {
        clip-path: url(#clippath);
      }

      .cls-67 {
        fill: #ebebeb;
      }

      .cls-68 {
        fill: #1d1d1d;
      }

      .cls-25 {
        opacity: .15;
      }

      .cls-26 {
        letter-spacing: 0em;
      }

      .cls-26, .cls-31, .cls-35, .cls-37, .cls-38 {
        font-size: 17.93px;
      }

      .cls-69 {
        fill: #1642b9;
      }

      .cls-27, .cls-34 {
        opacity: .1;
      }

      .cls-29 {
        letter-spacing: .02em;
      }

      .cls-30, .cls-70 {
        fill: #263238;
      }

      .cls-31 {
        letter-spacing: .02em;
      }

      .cls-71 {
        fill: #ffd44d;
      }

      .cls-72 {
        fill: #9ac5f4;
      }

      .cls-73 {
        fill: #eaeffc;
      }

      .cls-35 {
        letter-spacing: .02em;
      }

      .cls-36 {
        letter-spacing: .01em;
      }

      .cls-37 {
        letter-spacing: 0em;
      }

      .cls-38 {
        letter-spacing: 0em;
      }

      .cls-39 {
        opacity: .75;
      }

      .cls-74 {
        opacity: .25;
      }

      .cls-75 {
        fill: #ffa8a7;
      }

      .cls-41 {
        letter-spacing: -.06em;
      }

      .cls-76 {
        fill: #f2afe6;
      }
    </style>
    <clipPath id="clippath">
      <rect class="cls-51" x="87.72" y=".34" width="155" height="167"/>
    </clipPath>
  </defs>
  <g class="cls-66">
    <g>
      <path class="cls-47" d="m90.72,6.34c1.66,0,3-1.34,3-3s-1.34-3-3-3-3,1.34-3,3,1.34,3,3,3Z"/>
      <path class="cls-50" d="m114.72,5.84c1.38,0,2.5-1.12,2.5-2.5s-1.12-2.5-2.5-2.5-2.5,1.12-2.5,2.5,1.12,2.5,2.5,2.5Z"/>
      <path class="cls-47" d="m138.72,6.34c1.66,0,3-1.34,3-3s-1.34-3-3-3-3,1.34-3,3,1.34,3,3,3Z"/>
      <path class="cls-50" d="m162.72,5.84c1.38,0,2.5-1.12,2.5-2.5s-1.12-2.5-2.5-2.5-2.5,1.12-2.5,2.5,1.12,2.5,2.5,2.5Z"/>
      <path class="cls-47" d="m186.72,6.34c1.66,0,3-1.34,3-3s-1.34-3-3-3-3,1.34-3,3,1.34,3,3,3Z"/>
      <path class="cls-50" d="m210.72,5.84c1.38,0,2.5-1.12,2.5-2.5s-1.12-2.5-2.5-2.5-2.5,1.12-2.5,2.5,1.12,2.5,2.5,2.5Z"/>
      <path class="cls-47" d="m234.72,6.34c1.66,0,3-1.34,3-3s-1.34-3-3-3-3,1.34-3,3,1.34,3,3,3Z"/>
      <path class="cls-47" d="m90.72,32.34c1.66,0,3-1.34,3-3s-1.34-3-3-3-3,1.34-3,3,1.34,3,3,3Z"/>
      <path class="cls-50" d="m114.72,31.84c1.38,0,2.5-1.12,2.5-2.5s-1.12-2.5-2.5-2.5-2.5,1.12-2.5,2.5,1.12,2.5,2.5,2.5Z"/>
      <path class="cls-47" d="m138.72,32.34c1.66,0,3-1.34,3-3s-1.34-3-3-3-3,1.34-3,3,1.34,3,3,3Z"/>
      <path class="cls-50" d="m162.72,31.84c1.38,0,2.5-1.12,2.5-2.5s-1.12-2.5-2.5-2.5-2.5,1.12-2.5,2.5,1.12,2.5,2.5,2.5Z"/>
      <path class="cls-47" d="m186.72,32.34c1.66,0,3-1.34,3-3s-1.34-3-3-3-3,1.34-3,3,1.34,3,3,3Z"/>
      <path class="cls-50" d="m210.72,31.84c1.38,0,2.5-1.12,2.5-2.5s-1.12-2.5-2.5-2.5-2.5,1.12-2.5,2.5,1.12,2.5,2.5,2.5Z"/>
      <path class="cls-47" d="m234.72,32.34c1.66,0,3-1.34,3-3s-1.34-3-3-3-3,1.34-3,3,1.34,3,3,3Z"/>
      <path class="cls-47" d="m90.72,58.34c1.66,0,3-1.34,3-3s-1.34-3-3-3-3,1.34-3,3,1.34,3,3,3Z"/>
      <path class="cls-50" d="m114.72,57.84c1.38,0,2.5-1.12,2.5-2.5s-1.12-2.5-2.5-2.5-2.5,1.12-2.5,2.5,1.12,2.5,2.5,2.5Z"/>
      <path class="cls-47" d="m138.72,58.34c1.66,0,3-1.34,3-3s-1.34-3-3-3-3,1.34-3,3,1.34,3,3,3Z"/>
      <path class="cls-50" d="m162.72,57.84c1.38,0,2.5-1.12,2.5-2.5s-1.12-2.5-2.5-2.5-2.5,1.12-2.5,2.5,1.12,2.5,2.5,2.5Z"/>
      <path class="cls-47" d="m186.72,58.34c1.66,0,3-1.34,3-3s-1.34-3-3-3-3,1.34-3,3,1.34,3,3,3Z"/>
      <path class="cls-50" d="m210.72,57.84c1.38,0,2.5-1.12,2.5-2.5s-1.12-2.5-2.5-2.5-2.5,1.12-2.5,2.5,1.12,2.5,2.5,2.5Z"/>
      <path class="cls-47" d="m234.72,58.34c1.66,0,3-1.34,3-3s-1.34-3-3-3-3,1.34-3,3,1.34,3,3,3Z"/>
      <path class="cls-47" d="m90.72,84.34c1.66,0,3-1.34,3-3s-1.34-3-3-3-3,1.34-3,3,1.34,3,3,3Z"/>
      <path class="cls-50" d="m114.72,83.84c1.38,0,2.5-1.12,2.5-2.5s-1.12-2.5-2.5-2.5-2.5,1.12-2.5,2.5,1.12,2.5,2.5,2.5Z"/>
      <path class="cls-47" d="m138.72,84.34c1.66,0,3-1.34,3-3s-1.34-3-3-3-3,1.34-3,3,1.34,3,3,3Z"/>
      <path class="cls-50" d="m162.72,83.84c1.38,0,2.5-1.12,2.5-2.5s-1.12-2.5-2.5-2.5-2.5,1.12-2.5,2.5,1.12,2.5,2.5,2.5Z"/>
      <path class="cls-47" d="m186.72,84.34c1.66,0,3-1.34,3-3s-1.34-3-3-3-3,1.34-3,3,1.34,3,3,3Z"/>
      <path class="cls-50" d="m210.72,83.84c1.38,0,2.5-1.12,2.5-2.5s-1.12-2.5-2.5-2.5-2.5,1.12-2.5,2.5,1.12,2.5,2.5,2.5Z"/>
      <path class="cls-47" d="m234.72,84.34c1.66,0,3-1.34,3-3s-1.34-3-3-3-3,1.34-3,3,1.34,3,3,3Z"/>
      <path class="cls-47" d="m90.72,110.33c1.66,0,3-1.34,3-3s-1.34-3-3-3-3,1.34-3,3,1.34,3,3,3Z"/>
      <path class="cls-50" d="m114.72,109.83c1.38,0,2.5-1.12,2.5-2.5s-1.12-2.5-2.5-2.5-2.5,1.12-2.5,2.5,1.12,2.5,2.5,2.5Z"/>
      <path class="cls-47" d="m138.72,110.33c1.66,0,3-1.34,3-3s-1.34-3-3-3-3,1.34-3,3,1.34,3,3,3Z"/>
      <path class="cls-50" d="m162.72,109.83c1.38,0,2.5-1.12,2.5-2.5s-1.12-2.5-2.5-2.5-2.5,1.12-2.5,2.5,1.12,2.5,2.5,2.5Z"/>
      <path class="cls-47" d="m186.72,110.33c1.66,0,3-1.34,3-3s-1.34-3-3-3-3,1.34-3,3,1.34,3,3,3Z"/>
      <path class="cls-50" d="m210.72,109.83c1.38,0,2.5-1.12,2.5-2.5s-1.12-2.5-2.5-2.5-2.5,1.12-2.5,2.5,1.12,2.5,2.5,2.5Z"/>
      <path class="cls-47" d="m234.72,110.33c1.66,0,3-1.34,3-3s-1.34-3-3-3-3,1.34-3,3,1.34,3,3,3Z"/>
      <path class="cls-47" d="m90.72,136.34c1.66,0,3-1.34,3-3s-1.34-3-3-3-3,1.34-3,3,1.34,3,3,3Z"/>
      <path class="cls-50" d="m114.72,135.84c1.38,0,2.5-1.12,2.5-2.5s-1.12-2.5-2.5-2.5-2.5,1.12-2.5,2.5,1.12,2.5,2.5,2.5Z"/>
      <path class="cls-47" d="m138.72,136.34c1.66,0,3-1.34,3-3s-1.34-3-3-3-3,1.34-3,3,1.34,3,3,3Z"/>
      <path class="cls-50" d="m162.72,135.84c1.38,0,2.5-1.12,2.5-2.5s-1.12-2.5-2.5-2.5-2.5,1.12-2.5,2.5,1.12,2.5,2.5,2.5Z"/>
      <path class="cls-47" d="m186.72,136.34c1.66,0,3-1.34,3-3s-1.34-3-3-3-3,1.34-3,3,1.34,3,3,3Z"/>
      <path class="cls-50" d="m210.72,135.84c1.38,0,2.5-1.12,2.5-2.5s-1.12-2.5-2.5-2.5-2.5,1.12-2.5,2.5,1.12,2.5,2.5,2.5Z"/>
      <path class="cls-47" d="m234.72,136.34c1.66,0,3-1.34,3-3s-1.34-3-3-3-3,1.34-3,3,1.34,3,3,3Z"/>
      <path class="cls-47" d="m90.72,162.34c1.66,0,3-1.34,3-3s-1.34-3-3-3-3,1.34-3,3,1.34,3,3,3Z"/>
      <path class="cls-50" d="m114.72,161.84c1.38,0,2.5-1.12,2.5-2.5s-1.12-2.5-2.5-2.5-2.5,1.12-2.5,2.5,1.12,2.5,2.5,2.5Z"/>
      <path class="cls-47" d="m138.72,162.34c1.66,0,3-1.34,3-3s-1.34-3-3-3-3,1.34-3,3,1.34,3,3,3Z"/>
      <path class="cls-50" d="m162.72,161.84c1.38,0,2.5-1.12,2.5-2.5s-1.12-2.5-2.5-2.5-2.5,1.12-2.5,2.5,1.12,2.5,2.5,2.5Z"/>
      <path class="cls-47" d="m186.72,162.34c1.66,0,3-1.34,3-3s-1.34-3-3-3-3,1.34-3,3,1.34,3,3,3Z"/>
      <path class="cls-50" d="m210.72,161.84c1.38,0,2.5-1.12,2.5-2.5s-1.12-2.5-2.5-2.5-2.5,1.12-2.5,2.5,1.12,2.5,2.5,2.5Z"/>
      <path class="cls-47" d="m234.72,162.34c1.66,0,3-1.34,3-3s-1.34-3-3-3-3,1.34-3,3,1.34,3,3,3Z"/>
    </g>
  </g>
  <path class="cls-44" d="m227,128.16h1.75c-.01-.39.16-.78.44-1.04.25-.24.59-.38.94-.38.45,0,.84.17,1.11.51.21.26.31.59.31.91,0,.39-.2.84-.78,1.32l-3.81,3.23v1.6h6.15v-1.6h-3.45l1.99-1.71c1.06-.92,1.65-1.54,1.65-2.81,0-.72-.24-1.46-.71-2.01-.56-.72-1.44-1.04-2.36-1.04-.76,0-1.6.17-2.21.71-.64.56-1.05,1.43-1.01,2.3Zm7.76-.43c.01.32.06.7.22,1.07.11.25.29.48.48.69-.31.27-.56.62-.71.99-.16.4-.22.79-.22,1.15,0,.84.36,1.66,1,2.19.55.46,1.36.7,2.14.7s1.55-.2,2.15-.7c.66-.54.96-1.31,1-2.19-.01-.36-.06-.75-.23-1.15-.15-.36-.4-.71-.71-.99.19-.21.35-.44.46-.69.18-.38.23-.75.23-1.07,0-.8-.35-1.56-.99-2.03-.51-.4-1.2-.56-1.91-.56-.66,0-1.36.15-1.9.56-.66.47-.96,1.18-1,2.03Zm1.8,0c0-.3.09-.56.3-.74.2-.18.5-.25.8-.26.31.01.61.09.81.26.2.17.3.44.29.74.01.3-.09.56-.29.74-.2.17-.5.25-.81.25s-.6-.08-.8-.25c-.21-.18-.3-.44-.3-.74Zm2.09,4.85c-.24.22-.61.34-.99.34s-.74-.11-.99-.34c-.25-.24-.35-.59-.35-.95s.1-.72.35-.95c.25-.24.61-.35.99-.35s.75.11.99.35c.25.23.36.57.36.95s-.11.71-.36.95Zm5.78-2.94c1.24,0,2.25-1,2.25-2.25s-1.01-2.25-2.25-2.25-2.25,1.02-2.25,2.25,1.01,2.25,2.25,2.25Zm-.75,4.69l7.88-7.86-1.12-1.14-7.88,7.88,1.12,1.12Zm.75-5.94c-.55,0-1-.45-1-1s.45-1,1-1,1,.45,1,1-.45,1-1,1Zm5.25,6.12c1.24,0,2.25-1,2.25-2.25s-1.01-2.25-2.25-2.25-2.25,1.03-2.25,2.25,1.01,2.25,2.25,2.25Zm0-1.25c-.55,0-1-.45-1-1s.45-1,1-1,1,.45,1,1-.45,1-1,1Zm-16.62,9.06v4.3h-4.03v-4.3h-1.7v9h1.7v-3h4.03v3h1.7v-9h-1.7Zm3.57,0v9h1.7v-9h-1.7Zm7.82,4.2v1.35h2.09c-.1.41-.25.81-.5,1.14-.45.6-1.2.91-1.96.9-.78.01-1.53-.3-1.98-.9-.45-.6-.59-1.4-.6-2.19.01-.79.15-1.59.6-2.19.45-.6,1.2-.91,1.98-.9.76-.01,1.51.3,1.96.9.07.1.12.2.19.3l1.56-.71c-.11-.21-.25-.43-.4-.61-.78-.94-1.99-1.48-3.31-1.48s-2.54.5-3.31,1.48c-.74.9-1.04,1.98-1.06,3.21.02,1.19.31,2.32,1.06,3.21.77.99,2.01,1.47,3.31,1.47s2.52-.49,3.31-1.47c.72-.88,1.02-2,1.05-3.21v-.3h-3.99Zm11.21-4.2v4.3h-4.02v-4.3h-1.7v9h1.7v-3h4.02v3h1.7v-9h-1.7Z"/>
  <rect class="cls-51" x="222.92" y="20.01" width="42" height="44"/>
  <rect class="cls-51" x="504.85" y="291.01" width="46" height="46"/>
  <g>
    <path class="cls-72" d="m178.93,79.29c0-11,8.93-19.93,19.93-19.93h291.93c11,0,19.93,8.93,19.93,19.93v346.95c0,11-8.93,19.93-19.93,19.93H198.86c-11,0-19.93-8.93-19.93-19.93"/>
    <path d="m219.05,121.99h50.63c7.48,0,13.54,6.06,13.54,13.54h0c0,7.48-6.06,13.54-13.54,13.54h-50.63c-7.48,0-13.54-6.06-13.54-13.54h0c0-7.48,6.06-13.54,13.54-13.54Z"/>
    <path class="cls-44" d="m216.08,139.91v-1.26l3.68-3.29c.29-.25.48-.5.6-.73.12-.23.17-.45.17-.66,0-.29-.06-.54-.18-.76-.13-.23-.3-.4-.52-.54-.22-.13-.46-.2-.75-.2s-.57.07-.8.21c-.23.14-.4.31-.53.54s-.18.47-.18.74h-1.49c0-.58.13-1.07.38-1.5.25-.43.61-.76,1.06-.99s.98-.36,1.57-.36c.55,0,1.05.13,1.49.37s.78.58,1.04,1.01c.25.43.38.92.38,1.49,0,.42-.06.75-.17,1.04s-.28.53-.51.77c-.22.23-.5.5-.82.78l-2.62,2.32-.13-.36h4.23v1.36h-5.93.02Zm10.17.2c-.57,0-1.07-.12-1.52-.35-.44-.23-.78-.55-1.04-.96-.25-.42-.38-.88-.38-1.41,0-.47.12-.91.33-1.33.22-.4.54-.73.96-.97l-.03.46c-.33-.25-.59-.54-.77-.86-.18-.33-.27-.7-.27-1.11,0-.5.12-.92.35-1.28.23-.36.55-.65.96-.84.4-.21.88-.3,1.41-.3s1,.1,1.41.3c.42.2.73.48.96.84.23.36.36.8.36,1.28,0,.42-.09.78-.27,1.11-.17.32-.43.62-.78.89v-.46c.4.23.73.55.95.97.22.4.33.84.33,1.33,0,.53-.13,1-.38,1.41-.25.42-.6.73-1.05.96-.44.23-.95.35-1.52.35v-.02Zm0-1.36c.43,0,.76-.12,1.03-.35.27-.23.4-.57.4-1.01s-.13-.78-.39-1.01c-.27-.23-.61-.36-1.04-.36s-.76.12-1.03.36c-.25.23-.39.57-.39,1.01s.13.78.39,1.01c.25.23.6.35,1.03.35Zm0-4.11c.36,0,.65-.09.86-.27.22-.18.33-.45.33-.81s-.12-.63-.33-.81c-.22-.18-.51-.27-.86-.27s-.63.09-.86.27c-.22.17-.33.45-.33.81s.12.63.33.81.51.27.86.27Zm5.7,5.28l-.96-.96,7.66-7.65.96.96-7.66,7.65Zm5.86.18c-.39,0-.75-.09-1.08-.29-.32-.2-.58-.45-.77-.77s-.29-.69-.29-1.08.1-.75.3-1.07c.2-.32.46-.59.78-.78s.68-.29,1.06-.29.75.09,1.08.29c.32.2.59.45.77.77.2.32.29.68.29,1.08s-.09.76-.29,1.08-.45.58-.77.77-.69.29-1.08.29h0Zm0-1.23c.16,0,.31-.05.45-.13s.25-.2.35-.33.13-.29.13-.46-.05-.32-.13-.46-.2-.25-.35-.33c-.14-.08-.29-.13-.45-.13s-.32.05-.46.13-.25.2-.35.33c-.08.14-.13.29-.13.46s.05.32.13.46c.09.14.2.25.35.33s.29.13.46.13Zm-5.03-3.44c-.39,0-.75-.09-1.08-.29-.32-.2-.59-.45-.78-.77s-.29-.69-.29-1.08.1-.75.3-1.07c.2-.32.46-.59.78-.78s.68-.29,1.06-.29.75.09,1.07.29.59.45.78.77.29.68.29,1.08-.09.76-.29,1.08-.46.58-.78.77-.68.29-1.07.29h.01Zm0-1.23c.17,0,.32-.05.46-.13s.25-.2.33-.33.13-.29.13-.46-.05-.32-.13-.46-.2-.25-.33-.33-.29-.13-.46-.13-.32.05-.46.13-.25.2-.33.33-.13.29-.13.46.05.32.13.46.2.25.33.33.29.13.46.13Zm11.13,5.72v-8.6h1.44v3.62h4.07v-3.62h1.43v8.6h-1.43v-3.63h-4.07v3.63h-1.44Zm8.74,0v-8.6h1.44v8.6h-1.44Zm6.78.18c-.55,0-1.08-.09-1.57-.29s-.91-.5-1.28-.88-.66-.85-.86-1.41-.31-1.2-.31-1.91c0-.95.17-1.74.53-2.41.35-.67.83-1.18,1.44-1.53s1.29-.54,2.06-.54c1.06,0,1.9.24,2.51.74.62.5,1.04,1.18,1.26,2.06l-1.48.23c-.16-.51-.43-.91-.8-1.22s-.84-.46-1.42-.46-1.06.12-1.44.38c-.38.25-.67.62-.86,1.1s-.29,1.01-.29,1.65.09,1.18.29,1.65c.2.46.47.82.86,1.08.39.25.86.39,1.44.4.44,0,.82-.07,1.14-.23s.59-.4.8-.74.35-.74.42-1.23h-1.52v-1.13h3.04c0,.07.01.16.02.28v.22c0,.81-.16,1.53-.48,2.17s-.77,1.12-1.37,1.49c-.6.36-1.31.54-2.15.54h.01Zm5.2-.18v-8.6h1.44v3.62h4.07v-3.62h1.43v8.6h-1.43v-3.63h-4.07v3.63h-1.44Z"/>
    <rect class="cls-51" x="186.44" y="19.88" width="48.44" height="50.74"/>
    <g class="cls-11">
      <text class="cls-26" transform="translate(205.51 108.31)"><tspan x="0" y="0">T</tspan></text>
      <text class="cls-38" transform="translate(217.09 108.31)"><tspan x="0" y="0">h</tspan></text>
      <text class="cls-38" transform="translate(227.46 108.31)"><tspan x="0" y="0">i</tspan></text>
      <text class="cls-31" transform="translate(232.63 108.31)"><tspan x="0" y="0">s </tspan></text>
      <text class="cls-35" transform="translate(246.89 108.31)"><tspan x="0" y="0">M</tspan></text>
      <text class="cls-31" transform="translate(262.98 108.31)"><tspan x="0" y="0">o</tspan></text>
      <text class="cls-31" transform="translate(273.35 108.31)"><tspan x="0" y="0">u</tspan></text>
      <text class="cls-37" transform="translate(283.88 108.31)"><tspan x="0" y="0">n</tspan></text>
      <text class="cls-31" transform="translate(294.23 108.31)"><tspan x="0" y="0">t</tspan></text>
    </g>
    <g>
      <path class="cls-68" d="m290.06,358.51h20.86c3.69,0,6.68,1.72,6.68,3.85v50.12c0,2.12-2.99,3.85-6.68,3.85h-20.86c-3.69,0-6.68-1.72-6.68-3.85v-50.12c0-2.12,2.99-3.85,6.68-3.85Z"/>
      <rect class="cls-68" x="340.54" y="331.19" width="34.22" height="85.15" rx="6.68" ry="6.68"/>
      <rect class="cls-68" x="397.69" y="310.69" width="34.22" height="105.64" rx="6.68" ry="6.68"/>
      <rect class="cls-68" x="454.85" y="278.27" width="34.22" height="138.06" rx="6.68" ry="6.68"/>
    </g>
    <g class="cls-11">
      <text class="cls-19" transform="translate(205.13 383.26)"><tspan x="0" y="0">0</tspan></text>
      <text class="cls-41" transform="translate(218.23 383.26)"><tspan x="0" y="0">1</tspan></text>
      <text class="cls-17" transform="translate(230.71 383.26)"><tspan x="0" y="0">.</tspan></text>
      <text class="cls-13" transform="translate(237.37 383.26)"><tspan x="0" y="0">0</tspan></text>
      <text class="cls-13" transform="translate(251.33 383.26)"><tspan x="0" y="0">0</tspan></text>
      <text class="cls-23" transform="translate(205.13 414.15)"><tspan x="0" y="0">K</tspan></text>
      <text class="cls-13" transform="translate(221.07 414.15)"><tspan x="0" y="0">B</tspan></text>
      <text class="cls-13" transform="translate(236.55 414.15)"><tspan x="0" y="0">/</tspan></text>
      <text class="cls-24" transform="translate(244.86 414.15)"><tspan x="0" y="0">S</tspan></text>
    </g>
    <g>
      <g id="freepik--Floor--inject-2">
        <ellipse id="freepik--floor--inject-2" class="cls-55" cx="341.83" cy="272.12" rx="72.66" ry="40.23"/>
      </g>
      <g id="freepik--Shadows--inject-2-2">
        <path id="freepik--Shadow--inject-2-2" class="cls-64" d="m407.23,265.89l-40.5,23.4c-.35.17-.75.17-1.08,0l-58.4-33.7c-.17-.05-.28-.22-.23-.39.03-.12.12-.21.23-.23l40.5-23.4c.35-.17.75-.17,1.08,0l58.4,33.7c.17.05.28.22.23.39-.03.12-.12.21-.23.23h0Z"/>
        <ellipse id="freepik--shadow--inject-2-3" class="cls-64" cx="313.11" cy="288.32" rx="24.33" ry="14.05"/>
        <ellipse id="freepik--shadow--inject-2-4" class="cls-64" cx="342.74" cy="272.04" rx="19.16" ry="11.06"/>
        <ellipse id="freepik--shadow--inject-2-5" class="cls-64" cx="385.33" cy="286.86" rx="12.02" ry="6.94"/>
      </g>
      <g id="freepik--Desk--inject-2">
        <g id="freepik--desk--inject-2">
          <g id="freepik--Table--inject-2">
            <path class="cls-53" d="m367.62,247.49v35.97c-.01.25-.15.48-.36.63l-.77.44c-.23.12-.5.12-.73,0l-.77-.44c-.22-.14-.35-.37-.36-.63v-35.97c0-.23.16-.32.36-.21l.77.44c.23.12.5.12.73,0l.77-.44c.2-.12.36-.02.36.21Z"/>
            <path class="cls-56" d="m365.75,284.51l-.77-.44c-.22-.14-.35-.37-.36-.63v-35.95c0-.23.16-.32.36-.21l.77.44c.21.14.35.37.36.62v35.97c0,.22-.16.32-.36.2h0Z"/>
            <path class="cls-53" d="m400.51,228.49v35.95c-.01.25-.15.48-.36.63l-.77.45c-.23.12-.5.12-.73,0l-.77-.45c-.22-.14-.35-.37-.36-.63v-35.96c0-.23.16-.32.36-.21l.77.45c.23.12.5.12.73,0l.77-.45c.2-.12.36-.02.36.21h0Z"/>
            <path class="cls-56" d="m398.64,265.51l-.77-.45c-.22-.14-.35-.37-.36-.63v-35.96c0-.23.16-.32.36-.21l.77.45c.22.14.35.37.36.63v35.95c0,.22-.16.32-.36.22Z"/>
            <path class="cls-53" d="m323.31,221.93v35.97c-.01.25-.15.48-.36.63l-.77.44c-.23.12-.5.12-.73,0l-.77-.44c-.22-.14-.35-.37-.36-.63v-35.97c0-.23.16-.32.36-.21l.78.44c.23.12.5.12.73,0l.77-.44c.2-.12.36-.02.36.21h-.01Z"/>
            <path class="cls-56" d="m321.46,258.95l-.77-.44c-.22-.14-.35-.37-.36-.63v-35.97c0-.23.16-.32.36-.21l.77.46c.22.14.35.37.36.63v35.95c0,.23-.17.32-.36.21h0Z"/>
            <path class="cls-60" d="m407.66,231.04v-.27c-.02-.46-.27-.89-.65-1.14l-58-33.47c-.42-.21-.91-.21-1.33,0l-35.68,20.61c-.38.25-.62.68-.65,1.14v.28c.02.46.27.89.65,1.14l58,33.46c.42.21.91.21,1.33,0l35.68-20.62c.38-.25.62-.68.65-1.14h0Z"/>
            <path class="cls-28" d="m407.66,231.04v-.27c-.02-.46-.27-.89-.65-1.14l-58-33.47c-.42-.21-.91-.21-1.33,0l-35.68,20.61c-.38.25-.62.68-.65,1.14v.28c.02.46.27.89.65,1.14l58,33.46c.42.21.91.21,1.33,0l35.68-20.62c.38-.25.62-.68.65-1.14h0Z"/>
            <path class="cls-60" d="m370.66,251.16v1.79c.23,0,.45-.06.65-.16l35.71-20.61c.38-.25.62-.68.65-1.14v-.27c-.02-.42-.22-.8-.54-1.06.24.21.2.48-.13.68l-35.68,20.61c-.2.1-.43.16-.66.16h.01Z"/>
            <path class="cls-40" d="m370.66,251.16v1.79c.23,0,.45-.06.65-.16l35.71-20.61c.38-.25.62-.68.65-1.14v-.27c-.02-.42-.22-.8-.54-1.06.24.21.2.48-.13.68l-35.68,20.61c-.2.1-.43.16-.66.16h.01Z"/>
            <path class="cls-60" d="m407.01,230.39l-35.69,20.61c-.42.21-.91.21-1.33,0l-58.01-33.44c-.21-.07-.32-.3-.25-.51.03-.12.14-.21.25-.25l35.68-20.62c.42-.21.91-.21,1.33,0l58.01,33.47c.21.07.32.3.25.51-.03.12-.14.21-.25.25h.01Z"/>
            <path class="cls-33" d="m407.01,230.39l-35.69,20.61c-.42.21-.91.21-1.33,0l-58.01-33.44c-.21-.07-.32-.3-.25-.51.03-.12.14-.21.25-.25l35.68-20.62c.42-.21.91-.21,1.33,0l58.01,33.47c.21.07.32.3.25.51-.03.12-.14.21-.25.25h.01Z"/>
          </g>
          <g id="freepik--Keyboard--inject-2">
            <path id="freepik--shadow--inject-2-6" class="cls-25" d="m366.27,229.96l-8.45,4.89c-.3.15-.65.15-.95,0l-24.98-14.4c-.15-.05-.23-.21-.18-.37.02-.09.09-.15.18-.18l8.45-4.9c.3-.15.65-.15.95,0l24.98,14.4c.15.06.22.23.16.38-.03.07-.09.14-.16.17h0Z"/>
            <g id="freepik--keyboard--inject-2">
              <path class="cls-70" d="m332.41,219.02c0-.12.08-.23.2-.28l7.95-4.59c.3-.15.65-.15.95,0l24.24,14.01c.12.05.18.15.2.28v.83c0,.12-.08.22-.2.28l-7.93,4.59c-.3.15-.65.15-.95,0l-24.24-14c-.12-.05-.18-.15-.2-.28v-.85h-.01Z"/>
              <path class="cls-53" d="m357.79,233.3l7.93-4.57c.15-.05.23-.21.18-.37-.02-.09-.09-.15-.18-.18l-24.24-14.01c-.3-.15-.65-.15-.95,0l-7.95,4.59c-.15.05-.23.21-.18.37.02.09.09.15.18.18l24.24,13.99c.3.15.65.15.95,0h.01Z"/>
              <path class="cls-70" d="m357.34,233.4v.85c.15,0,.31-.03.44-.12l7.93-4.58c.12-.05.18-.15.2-.28v-.83c0,.13-.08.23-.2.28l-7.93,4.57c-.14.07-.29.1-.44.12h0Z"/>
              <path class="cls-60" d="m333.87,219.09h0l.78-.45,1.06.61-.8.47-1.06-.61h0v-.02Zm1.23-.72h0l.78-.45.84.48-.8.45-.83-.48h0Zm.25,1.57h0l.78-.45.83.48-.8.47-.83-.48h0v-.02Zm.97-2.27h0l.78-.45,1.35.78-.8.46-1.35-.78h.01Zm.03,1.44h0l.78-.46.67.38-.78.45-.67-.39h0v.02Zm.25,1.57h0l.78-.45.84.48-.8.47-.83-.48h0v-.02Zm.83-.93h0l.78-.45.65.38-.8.47-.65-.38h0v-.02Zm.12-2.78h0l.78-.45,1.06.61-.78.45-1.06-.61h0Zm.32,4.45h0l.78-.45,6.05,3.49-.8.47-6.05-3.49h0v-.02Zm.23-2.71h0l.78-.45.65.38-.8.46-.67-.38h.03Zm.43,1.67h0l.78-.45.67.38-.8.47-.67-.38h0v-.02Zm.25-4.12h0l.78-.45.67.38-.8.46-.66-.4h0Zm.25,1.57h0l.78-.45.67.38-.78.44-.67-.38h0Zm.15,1.5h0l.78-.45.67.38-.8.46-.67-.38h.01Zm.43,1.67h0l.78-.45.65.38-.8.47-.65-.38h0v-.02Zm.25-4.12h0l.78-.45.67.38-.8.46-.65-.38h-.01Zm.25,1.57h0l.78-.45.67.38-.8.47-.67-.38h0v-.02Zm.15,1.5h0l.78-.45.65.38-.8.46-.65-.38h.01Zm0-4.57h0l.78-.45.84.48-.8.47-.83-.48h0v-.02Zm.43,6.24h0l.78-.45.67.38-.8.47-.67-.38h0v-.02Zm.25-4.12h0l.78-.45.67.38-.78.43-.67-.38v.02Zm.25,1.57h0l.78-.45.67.38-.8.47-.67-.4h.01Zm.15,1.5h0l.78-.45.67.38-.8.46-.67-.38h.01Zm.43,1.67h0l.78-.45.65.38-.8.47-.65-.38h0v-.02Zm.22-5.87h0l.78-.45.67.38-.8.47-.67-.38h0v-.02Zm.03,1.74h0l.78-.45.67.38-.78.45-.65-.38h-.02Zm.25,1.57h0l.78-.45.67.38-.8.47-.67-.38h0v-.02Zm.15,1.5h0l.78-.45.65.38-.8.46-.65-.38h.01Zm.43,1.67h0l.8-.47.65.38-.8.47-.67-.38h.02Zm.22-5.87h0l.78-.45.67.38-.8.47-.65-.38h-.01v-.02Zm.03,1.74h0l.78-.45.67.38-.78.44-.65-.38h-.02Zm.25,1.57h0l.78-.45.67.38-.8.47-.67-.38h0v-.02Zm.15,1.5h0l.78-.45.67.38-.8.46-.67-.38h.01Zm.43,1.67h0l.78-.46.67.38-.8.47-.67-.38h.01Zm.22-5.87h0l.78-.45.67.38-.8.47-.67-.38h0v-.02Zm.03,1.74h0l.78-.45.67.38-.8.46-.65-.38h-.01Zm.12,5.75h0l.78-.45.83.48-.8.47-.83-.48h0v-.02Zm.14-4.19h0l.78-.45.67.38-.8.47-.67-.38h0v-.02Zm.15,1.5h0l.78-.45.66.36-.8.46-.67-.38h.02Zm.43,1.67h0l.78-.45.67.38-.8.47-.67-.38h0v-.02Zm.22-5.87h0l.78-.45.66.37-.8.47-.67-.38h.02Zm.03,1.74h0l.78-.45.67.38-.8.46-.67-.38h.01Zm.25,1.57h0l.78-.45.65.38-.8.47-.65-.38h0v-.02Zm.03,4.28h0l.78-.45.83.48-.8.47-.83-.48h0v-.02Zm.12-2.78h0l.78-.45.65.38-.75.44-.65-.38h-.03Zm.43,1.67h0l.78-.45.67.38-.8.47-.67-.38h0v-.02Zm.25-4.12h0l.78-.45.65.38-.8.46-.65-.4h.01Zm.25,1.57h0l.78-.45.67.38-.8.47-.67-.38h0v-.02Zm.15,1.5h0l.78-.45.67.38-.8.46-.66-.43v.02h0Zm.03-4.53h0l.78-.45.67.38-.8.47-.66-.43v.02h0Zm.02,7.43h0l.78-.45.83.48-.8.44-.83-.48v.02h.01Zm.37-1.21h0l.78-.46.67.38-.8.47-.65-.38h-.01Zm.25-4.12h0l.78-.45.67.38-.8.46-.67-.38h.01Zm.25,1.57h0l.78-.45.67.38-.8.47-.67-.38h0v-.02Zm.15,1.5h0l.78-.45.67.38-.8.46-.66-.42h0v.02Zm.03-4.53h0l.78-.45.67.38-.8.47-.65-.38h-.01v-.02Zm.2,7.52h0l.78-.46,1.06.61-.8.47-1.06-.61h.01Zm.2-1.29h0l.78-.46,2.1,1.21-.8.47-2.08-1.27v.05h-.01Zm.25-4.12h0l.78-.45.67.38-.8.46-.67-.38h.01Zm.25,1.57h0l.78-.45.66.32-.8.47-.67-.38v.05h.02Zm.15,1.5h0l.78-.45.67.38-.8.42-.65-.38v.03h-.01Zm.03-4.53h0l.78-.45.67.38-.8.47-.67-.38h0v-.02Zm.65,2.1h0l.78-.45.67.38-.8.46-.67-.38h.01Zm.17,5.79h0l.78-.45.67.38-.8.47-.65-.38h0v-.02Zm.08-4.21h0l.78-.45.65.38-.75.4-.65-.38-.03.05Zm.15,1.5h0l.78-.45.61.35c.06.03.13.05.2.05s.14-.01.2-.05l1.04-.6.77.45-2.02,1.18-1.58-.91h0Zm.03-4.53h0l.78-.45.67.38-.78.38-.67-.38v.07Zm.65,2.1h0l.78-.45.67.38-.8.46-.65-.38h-.01Zm.17,5.79h0l.78-.45.67.38-.8.47-.65-.38h0v-.02Zm.08-4.21h0l.78-.45.67.38-.8.47-.67-.38h0v-.02Zm.65-2.77h0l.78-.45.67.38-.8.47-.67-.38h0v-.02Zm.17,1.82h0l.78-.45.67.38-.8.46-.67-.38h.01Zm.17,5.79h0l.78-.45.67.38-.8.47-.65-.38h0v-.02Zm.14-1.34h0l.78-.45.67.38-.8.47-.65-.46v.06h-.01Zm.59-5.65h0l.78-.45.67.38-.8.47-.67-.38h0v-.02Zm.17,1.82h0l.78-.45,1.18.68-.8.47-1.18-.68h0v-.02Zm.4,5.92h0l.78-.45,1.75,1.01-.8.47-1.75-1.01h0v-.02Zm.2-4.15h0l.78-.45.67.38-.8.46-.67-.38h.01Zm.31-2.96h0l.78-.45.67.38-.78.39-.65-.38v.07h-.02Zm.73,6.41h0l.78-.45.67.38-.8.47-.67-.38h0v-.02Zm.05-2.81h0l.78-.45.65.38-.8.46-.65-.38h.01Zm.14-1.34h0l.78-.45.65.38-.8.47-.65-.38h0v-.02Zm.16-1.61h0l.78-.45.65.38-.8.47-.65-.38h0v-.02Zm.59,7.75h0l.78-.45.67.38-.8.47-.65-.38h0v-.02Zm.14-1.34h0l.78-.45.65.38-.8.47-.65-.38h0v-.02Zm.05-2.81h0l.78-.45.67.38-.8.46-.67-.38h.01Zm.09,1.48h0l.78-.45.65.38-.8.46-.65-.38h.01Zm.05-2.81h0l.78-.45.67.38-.8.47-.67-.38h0v-.02Zm.4-1.49h0l.78-.45.67.38-.77.38-.67-.38v.07h-.01Zm.35,7.61h0l2.02-1.16.67.38-2.02,1.18-.67-.38h0Zm.14-1.34h0l.78-.45.67.38-.78.38-.65-.38-.02.08h0Zm.14-1.34h0l.78-.45.67.38-.8.46-.65-.47v.08h-.01Zm.05-2.81h0l.78-.45.67.38-.8.47-.67-.38h0v-.02Zm.09,1.48h0l.78-.45.67.38-.8.47-.67-.38h0v-.02Zm.32-2.96h0l.78-.45.67.38-.8.47-.67-.38h0v-.02Zm.63,4.92h0l.78-.45.67.38-.8.47-.66-.46v.06h0Zm.14-1.34h0l.78-.45.67.38-.78.38-.67-.38v.07Zm.14-1.34h0l.78-.45.67.38-.8.47-.65-.38h0v-.02Zm.17-1.61h0l.78-.45.67.38-.8.47-.67-.38h0v-.02Zm.63,4.92h0l2.02-1.16.67.38-2.02,1.19-.67-.38h0v-.02Zm.14-1.34h0l.78-.45.67.38-.8.47-.67-.38h0v-.02Zm.14-1.34h0l.78-.45.67.38-.8.38-.65-.38v.08h-.01Zm.73-1.67h0l.32-.2.67.38-.35.21-.65-.38h0Zm.37,2.31h0l.78-.45.67.38-.8.47-.65-.38h0v-.02Zm.73-1.67h0l.32-.2.67.38-.35.21-.65-.38h0Zm.37,2.31h0l.78-.45.67.38-.8.47-.65-.38h0v-.02Zm.73-1.67h0l.32-.2.67.38-.35.21-.65-.38h0Zm1.08.63h0l.32-.2.67.38-.35.21-.65-.38h0Z"/>
            </g>
          </g>
          <g id="freepik--Device--inject-2-2">
            <polygon id="freepik--shadow--inject-2-7" class="cls-25" points="385.8 230.9 393.24 226.61 356.06 205.14 348.62 209.43 385.8 230.9"/>
            <g id="freepik--Monitor--inject-2">
              <path class="cls-64" d="m364.74,223.91l-5.31-3.07c-.54-.32-.82-.73-.82-1.14v-.74l4.99-2.84c.31-.21.51-.54.53-.92v-6.55l9.27,5.36v6.55c-.02.37-.22.72-.53.92l-4.17,2.43c-1.25.63-2.72.63-3.97,0h0Z"/>
              <path class="cls-61" d="m371.19,221.72v.74l1.7-.97c.31-.21.51-.54.53-.92v-6.55l-1.76-1.03c-.03.45-.08.91-.12,1.36l1.23.72v5.11c-.02.37-.22.72-.53.92l-1.06.61h.01Z"/>
              <path class="cls-55" d="m372.77,220.2c-.02.37-.22.72-.53.92l-3.53,2.06c-1.25.63-2.72.63-3.97,0l-5.32-3.07c-1.1-.63-1.1-1.66,0-2.28l3.54-2.06c.31-.21.51-.54.53-.91v-5.12l9.27,5.36v5.11h0Z"/>
              <path class="cls-67" d="m361.9,216.37h0l1.07-.62c.31-.21.51-.54.53-.91v-5.12l9.27,5.36v5.11c-.02.37-.22.72-.53.92l-1.06.61-9.3-5.35h.01Z"/>
              <path class="cls-67" d="m358.62,218.95v.74c0,.42.28.83.82,1.14l5.32,3.07c.58.31,1.23.47,1.89.47v-.74c-.66,0-1.31-.16-1.89-.47l-5.32-3.07c-.54-.31-.82-.73-.82-1.14Z"/>
              <path class="cls-56" d="m387.67,227.26c-.4.2-.88.18-1.28-.02l-35.87-20.69c-.38-.25-.62-.68-.65-1.14v-31.4c-.02-.68.51-1.26,1.19-1.29.25,0,.5.06.72.2l35.87,20.71c.38.25.62.68.65,1.14v31.39c-.01.45-.24.86-.62,1.12h0Z"/>
              <path class="cls-53" d="m386.39,227.23l-35.87-20.69c-.38-.25-.62-.68-.65-1.14v-31.42c0-.43.3-.59.65-.38l35.87,20.7c.38.25.62.68.65,1.14v31.39c.01.43-.29.59-.65.38h0Z"/>
              <path class="cls-61" d="m386.48,227.36c.6.31,1.35.08,1.66-.53.1-.2.15-.4.14-.62v-3.53l-1.23.7v3.53c0,.39-.24.57-.57.44h0Z"/>
              <path class="cls-44" d="m387.05,223.39v3.53c0,.43-.3.59-.65.38l-35.88-20.7c-.38-.25-.62-.68-.65-1.14v-3.53l37.18,21.46h-.01Z"/>
              <path class="cls-60" d="m385.8,220.72v-24.84c-.01-.28-.16-.53-.39-.69l-33.92-19.58c-.22-.13-.39-.02-.39.23v24.84c.01.28.16.53.39.69l33.92,19.58c.21.13.39.02.39-.23h0Z"/>
              <path class="cls-15" d="m385.8,220.72v-24.84c-.01-.28-.16-.53-.39-.69l-33.92-19.58c-.22-.13-.39-.02-.39.23v24.84c.01.28.16.53.39.69l33.92,19.58c.21.13.39.02.39-.23h0Z"/>
              <path class="cls-56" d="m368.45,214.02c.37.24.6.63.62,1.07,0,.39-.28.55-.62.36-.37-.24-.6-.63-.62-1.07,0-.38.3-.55.62-.36Z"/>
              <path class="cls-70" d="m386.85,194.8c.12.2.18.42.2.65v27.94l1.23-.72v-27.93c0-.23-.08-.45-.2-.65l-1.23.72h0Z"/>
            </g>
          </g>
          <g id="freepik--Window--inject-2">
            <g id="freepik--window--inject-2">
              <path class="cls-56" d="m355.73,167.51v-.06h0v-.06s.02-.06.03-.08c0-.01,0-.02.02-.03l.02-.02s.02-.03.05-.05h0s.03-.02.06-.03c.14-.06.3-.03.43.06l41.86,24.15c.37.24.61.66.63,1.1v30.3h0v.14c0,.16-.09.3-.23.38l-.03.02-.03.02h-.14c-.07,0-.15-.02-.21-.06h-.01l-.55-.35-41.25-23.82c-.37-.24-.61-.65-.63-1.1v-30.53h-.01Z"/>
              <path class="cls-60" d="m355.93,167.16c.14-.06.3-.03.43.06l41.86,24.15c.37.24.61.66.63,1.1v2.08l.81-.47v-2.05c-.02-.45-.25-.85-.63-1.1l-41.86-24.17c-.14-.09-.31-.12-.46-.03-.12.07-.63.37-.77.44h0Z"/>
              <path class="cls-60" d="m355.73,167.58c0-.4.29-.57.63-.36l41.86,24.16c.37.24.61.65.63,1.1v2.08l-43.12-24.9v-2.08h-.01Z"/>
              <g class="cls-52">
                <path class="cls-44" d="m356.36,167.22l41.86,24.16c.18.12.33.28.44.46l.81-.46c-.1-.18-.25-.35-.44-.46l-41.85-24.15c-.14-.09-.31-.12-.46-.03-.12.07-.65.37-.77.44.14-.06.3-.03.43.06h-.01Z"/>
              </g>
              <path class="cls-25" d="m399.65,194.07v-2.05c0-.23-.07-.45-.2-.65l-.81.46c.12.18.18.4.2.63v2.1l.81-.48h0Z"/>
              <path class="cls-56" d="m397.42,191.82c.23.18.36.46.36.76s-.16.46-.36.35c-.23-.18-.36-.46-.36-.76s.16-.46.36-.35Z"/>
              <path class="cls-56" d="m396.14,191.07c.23.18.36.46.36.75s-.16.46-.36.35c-.23-.18-.36-.46-.36-.75s.16-.46.36-.35Z"/>
              <path class="cls-56" d="m394.85,190.34c.23.18.36.46.36.76s-.16.46-.36.35c-.23-.18-.36-.46-.36-.76,0-.32.16-.47.36-.35Z"/>
              <path class="cls-30" d="m398.62,223.29l.03-.02.67-.38c.17-.1.3-.29.32-.48v-28.34l-.81.47v28.37c0,.15-.07.29-.2.36h-.02v.02Z"/>
            </g>
            <g id="freepik--Code--inject-2">
              <path class="cls-60" d="m368.55,180.43l8.82,5.09c.13.08.22.22.23.37,0,.14-.1.18-.23.12l-8.82-5.09c-.13-.08-.21-.22-.22-.37,0-.14.1-.18.22-.12Z"/>
              <path class="cls-64" d="m371.92,190.17l3.33,1.93c.13.08.21.22.22.37,0,.14-.1.18-.22.12l-3.33-1.91c-.13-.08-.22-.22-.23-.37,0-.14.1-.2.23-.12h0Z"/>
              <path class="cls-64" d="m371.92,192.12l3.33,1.93c.13.08.21.22.22.38,0,.14-.1.18-.22.12l-3.33-1.93c-.13-.08-.22-.22-.23-.37,0-.14.1-.18.23-.12h0Z"/>
              <path class="cls-60" d="m378.24,186.03l17.67,10.17c.13.08.21.22.22.38,0,.14-.1.18-.22.12l-17.67-10.17c-.13-.08-.21-.22-.22-.38,0-.14.1-.18.22-.12h0Z"/>
              <path class="cls-60" d="m371.99,203.82l5.37,3.11c.13.08.22.22.23.37,0,.14-.1.18-.23.12l-5.37-3.11c-.13-.08-.21-.22-.22-.37,0-.14.1-.18.22-.12Z"/>
              <path class="cls-60" d="m378.24,207.44l17.67,10.18c.13.08.21.22.22.37,0,.14-.1.18-.22.12l-17.67-10.18c-.13-.08-.21-.22-.22-.37,0-.14.1-.18.22-.12h0Z"/>
              <path class="cls-60" d="m368.55,182.38l4.44,2.55c.13.08.21.22.22.37,0,.14-.1.18-.22.12l-4.44-2.54c-.13-.08-.21-.22-.22-.37,0-.15.1-.2.22-.13h0Z"/>
              <path class="cls-20" d="m368.55,182.38l4.44,2.55c.13.08.21.22.22.37,0,.14-.1.18-.22.12l-4.44-2.54c-.13-.08-.21-.22-.22-.37,0-.15.1-.2.22-.13h0Z"/>
              <path class="cls-60" d="m368.55,184.33l2.08,1.2c.13.08.21.22.22.37,0,.14-.1.18-.22.12l-2.08-1.19c-.13-.08-.21-.22-.22-.37,0-.15.1-.2.22-.13Z"/>
              <path class="cls-20" d="m368.55,184.33l2.08,1.2c.13.08.21.22.22.37,0,.14-.1.18-.22.12l-2.08-1.19c-.13-.08-.21-.22-.22-.37,0-.15.1-.2.22-.13Z"/>
              <path class="cls-60" d="m368.55,188.23l2.08,1.2c.13.08.21.22.22.38,0,.14-.1.18-.22.12l-2.08-1.2c-.13-.08-.21-.22-.22-.38,0-.14.1-.18.22-.12Z"/>
              <path class="cls-20" d="m368.55,188.23l2.08,1.2c.13.08.21.22.22.38,0,.14-.1.18-.22.12l-2.08-1.2c-.13-.08-.21-.22-.22-.38,0-.14.1-.18.22-.12Z"/>
              <path class="cls-60" d="m368.55,190.17l2.08,1.2c.13.08.21.22.22.37,0,.14-.1.18-.22.12l-2.08-1.2c-.13-.08-.21-.22-.22-.37,0-.14.1-.18.22-.12Z"/>
              <path class="cls-20" d="m368.55,190.17l2.08,1.2c.13.08.21.22.22.37,0,.14-.1.18-.22.12l-2.08-1.2c-.13-.08-.21-.22-.22-.37,0-.14.1-.18.22-.12Z"/>
              <path class="cls-60" d="m373.87,185.44l2.66,1.55c.13.08.22.22.23.37,0,.14-.1.18-.23.12l-2.66-1.55c-.13-.08-.22-.22-.23-.38,0-.14.1-.18.23-.12h0Z"/>
              <path class="cls-20" d="m373.87,185.44l2.66,1.55c.13.08.22.22.23.37,0,.14-.1.18-.23.12l-2.66-1.55c-.13-.08-.22-.22-.23-.38,0-.14.1-.18.23-.12h0Z"/>
              <path class="cls-44" d="m377.98,199.52l17.92,10.32c.13.08.21.22.22.37,0,.14-.1.18-.22.12l-17.92-10.32c-.13-.08-.22-.22-.23-.37,0-.14.1-.18.23-.12Z"/>
              <path class="cls-44" d="m393.24,206.35l2.66,1.55c.13.08.21.22.22.37,0,.14-.1.18-.22.12l-2.66-1.55c-.13-.08-.21-.22-.22-.37,0-.14.1-.18.22-.12Z"/>
              <path class="cls-44" d="m374.44,195.53l17.92,10.32c.13.08.21.22.22.38,0,.14-.1.18-.22.12l-17.92-10.32c-.13-.08-.21-.22-.22-.38,0-.14.1-.18.22-.12Z"/>
              <path class="cls-60" d="m371.92,186.28l4.44,2.55c.13.08.22.22.23.37,0,.14-.1.18-.23.12l-4.44-2.55c-.13-.08-.22-.22-.23-.37,0-.15.1-.2.23-.13h0Z"/>
              <path class="cls-20" d="m371.92,186.28l4.44,2.55c.13.08.22.22.23.37,0,.14-.1.18-.23.12l-4.44-2.55c-.13-.08-.22-.22-.23-.37,0-.15.1-.2.23-.13h0Z"/>
              <path class="cls-60" d="m377.23,189.34l18.54,10.73c.13.08.21.22.22.38,0,.14-.1.18-.22.12l-18.54-10.73c-.13-.08-.21-.22-.22-.37,0-.14.1-.18.22-.12h0Z"/>
              <path class="cls-20" d="m377.23,189.34l18.54,10.73c.13.08.21.22.22.38,0,.14-.1.18-.22.12l-18.54-10.73c-.13-.08-.21-.22-.22-.37,0-.14.1-.18.22-.12h0Z"/>
              <path class="cls-64" d="m371.92,198l23.98,13.83c.13.08.21.22.22.37,0,.14-.1.18-.22.12l-23.98-13.84c-.13-.08-.22-.22-.23-.37,0-.14.1-.18.23-.12h0Z"/>
              <path class="cls-60" d="m368.55,196.05l2.08,1.2c.13.08.21.22.22.37,0,.14-.1.18-.22.12l-2.08-1.2c-.13-.08-.21-.22-.22-.37,0-.14.1-.18.22-.12Z"/>
              <path class="cls-20" d="m368.55,196.05l2.08,1.2c.13.08.21.22.22.37,0,.14-.1.18-.22.12l-2.08-1.2c-.13-.08-.21-.22-.22-.37,0-.14.1-.18.22-.12Z"/>
              <path class="cls-64" d="m371.92,199.95l23.98,13.84c.13.08.21.22.22.37,0,.14-.1.18-.22.12l-23.98-13.84c-.14-.08-.22-.22-.23-.37,0-.14.1-.18.23-.12Z"/>
              <path class="cls-60" d="m368.55,198l2.08,1.2c.13.08.21.22.22.37,0,.14-.1.18-.22.12l-2.08-1.2c-.13-.08-.21-.22-.22-.37,0-.14.1-.18.22-.12Z"/>
              <path class="cls-20" d="m368.55,198l2.08,1.2c.13.08.21.22.22.37,0,.14-.1.18-.22.12l-2.08-1.2c-.13-.08-.21-.22-.22-.37,0-.14.1-.18.22-.12Z"/>
              <path class="cls-64" d="m371.92,201.9l23.98,13.84c.13.08.21.22.22.37,0,.14-.1.18-.22.12l-23.98-13.84c-.14-.08-.22-.22-.23-.37,0-.14.1-.18.23-.12Z"/>
              <path class="cls-60" d="m368.55,199.95l2.08,1.2c.13.08.21.22.22.37,0,.14-.1.18-.22.12l-2.08-1.2c-.13-.08-.21-.22-.22-.37,0-.14.1-.18.22-.12Z"/>
              <path class="cls-20" d="m368.55,199.95l2.08,1.2c.13.08.21.22.22.37,0,.14-.1.18-.22.12l-2.08-1.2c-.13-.08-.21-.22-.22-.37,0-.14.1-.18.22-.12Z"/>
              <g class="cls-59">
                <path class="cls-44" d="m365.31,178.49l1.22.7c.13.08.21.23.22.38v.45c0,.14-.09.2-.22.13l-1.22-.7c-.13-.08-.22-.23-.22-.38v-.45c0-.14.1-.2.22-.13Z"/>
                <path class="cls-44" d="m365.31,180.45l1.22.7c.13.08.21.23.22.38v.45c0,.14-.09.2-.22.13l-1.22-.7c-.13-.08-.22-.23-.22-.38v-.45c0-.14.1-.2.22-.13Z"/>
                <path class="cls-44" d="m365.31,182.42l1.22.7c.13.08.21.23.22.38v.45c0,.14-.09.2-.22.13l-1.22-.7c-.13-.08-.22-.23-.22-.38v-.45c0-.14.1-.2.22-.13Z"/>
                <path class="cls-44" d="m365.31,184.38l1.22.7c.13.08.21.23.22.38v.45c0,.14-.09.2-.22.13l-1.22-.7c-.13-.08-.22-.23-.22-.38v-.45c0-.14.1-.2.22-.13Z"/>
                <path class="cls-44" d="m365.31,186.35l1.22.7c.13.08.21.23.22.38v.45c0,.14-.09.2-.22.13l-1.22-.7c-.13-.08-.22-.23-.22-.38v-.45c0-.14.1-.2.22-.13Z"/>
                <path class="cls-44" d="m365.31,188.31l1.22.7c.13.08.21.23.22.38v.45c0,.14-.09.2-.22.13l-1.22-.7c-.13-.08-.22-.23-.22-.38v-.45c0-.14.1-.2.22-.13Z"/>
                <path class="cls-44" d="m365.31,190.27l1.22.7c.13.08.21.23.22.38v.45c0,.14-.09.2-.22.13l-1.22-.7c-.13-.08-.22-.23-.22-.38v-.45c0-.14.1-.2.22-.13Z"/>
                <path class="cls-44" d="m365.31,192.24l1.22.7c.13.08.21.23.22.38v.45c0,.14-.09.2-.22.13l-1.22-.7c-.13-.08-.22-.23-.22-.38v-.45c0-.14.1-.2.22-.13Z"/>
                <path class="cls-44" d="m365.31,194.2l1.22.7c.13.08.21.23.22.38v.45c0,.14-.09.2-.22.13l-1.22-.7c-.13-.08-.22-.23-.22-.38v-.45c0-.14.1-.2.22-.13Z"/>
                <path class="cls-44" d="m365.31,196.18l1.22.7c.13.08.22.23.22.38v.45c0,.14-.09.2-.22.13l-1.22-.69c-.13-.08-.22-.23-.22-.38v-.45c0-.14.1-.21.22-.14Z"/>
                <path class="cls-44" d="m365.31,198.14l1.22.7c.13.08.21.23.22.38v.45c0,.14-.09.2-.22.13l-1.22-.72c-.13-.08-.22-.23-.22-.38v-.45c0-.14.1-.2.22-.12Z"/>
                <path class="cls-44" d="m365.31,200.11l1.22.7c.13.08.21.23.22.38v.45c0,.14-.09.2-.22.13l-1.22-.7c-.13-.08-.22-.23-.22-.38v-.45c0-.14.1-.2.22-.13Z"/>
              </g>
              <path class="cls-53" d="m357.19,172.1l6.61,3.82c.27.17.43.45.44.77v7.63c0,.28-.2.4-.44.25l-6.61-3.82c-.27-.17-.43-.45-.44-.77v-7.63c0-.29.2-.4.44-.25Z"/>
              <path class="cls-60" d="m357.81,179.66l.61.36c.13.08.22.22.23.37,0,.14-.1.18-.23.12l-.61-.36c-.13-.08-.21-.22-.22-.37,0-.14.1-.18.22-.12Z"/>
              <path class="cls-20" d="m357.81,179.66l.61.36c.13.08.22.22.23.37,0,.14-.1.18-.23.12l-.61-.36c-.13-.08-.21-.22-.22-.37,0-.14.1-.18.22-.12Z"/>
              <path class="cls-60" d="m357.81,173.41l.61.36c.13.08.22.22.23.37,0,.14-.1.18-.23.12l-.61-.35c-.13-.08-.21-.22-.22-.38,0-.14.1-.18.22-.12Z"/>
              <path class="cls-20" d="m357.81,173.41l.61.36c.13.08.22.22.23.37,0,.14-.1.18-.23.12l-.61-.35c-.13-.08-.21-.22-.22-.38,0-.14.1-.18.22-.12Z"/>
              <path class="cls-60" d="m358.67,175.16l.61.35c.13.08.21.22.22.37,0,.14-.1.18-.22.12l-.61-.35c-.13-.08-.21-.22-.22-.37,0-.14.1-.18.22-.12Z"/>
              <path class="cls-20" d="m358.67,175.16l.61.35c.13.08.21.22.22.37,0,.14-.1.18-.22.12l-.61-.35c-.13-.08-.21-.22-.22-.37,0-.14.1-.18.22-.12Z"/>
              <path class="cls-60" d="m358.67,176.41l.61.36c.13.08.21.22.22.37,0,.14-.1.18-.22.12l-.61-.35c-.13-.08-.21-.22-.22-.37,0-.14.1-.2.22-.12h0Z"/>
              <path class="cls-20" d="m358.67,176.41l.61.36c.13.08.21.22.22.37,0,.14-.1.18-.22.12l-.61-.35c-.13-.08-.21-.22-.22-.37,0-.14.1-.2.22-.12h0Z"/>
              <path class="cls-60" d="m357.81,177.17l.61.36c.13.08.22.22.23.37,0,.14-.1.18-.23.12l-.61-.35c-.13-.08-.21-.22-.22-.38,0-.14.1-.18.22-.12Z"/>
              <path class="cls-20" d="m357.81,177.17l.61.36c.13.08.22.22.23.37,0,.14-.1.18-.23.12l-.61-.35c-.13-.08-.21-.22-.22-.38,0-.14.1-.18.22-.12Z"/>
              <path class="cls-60" d="m358.67,178.91l.61.36c.13.08.21.22.22.37,0,.14-.1.18-.22.12l-.61-.36c-.13-.08-.21-.22-.22-.37,0-.14.1-.18.22-.12Z"/>
              <path class="cls-20" d="m358.67,178.91l.61.36c.13.08.21.22.22.37,0,.14-.1.18-.22.12l-.61-.36c-.13-.08-.21-.22-.22-.37,0-.14.1-.18.22-.12Z"/>
              <path class="cls-60" d="m359.47,174.38l3.71,2.15c.13.08.22.22.23.37,0,.14-.1.18-.23.12l-3.71-2.15c-.13-.08-.22-.22-.23-.38,0-.14.1-.18.23-.12h0Z"/>
              <path class="cls-8" d="m359.47,174.38l3.71,2.15c.13.08.22.22.23.37,0,.14-.1.18-.23.12l-3.71-2.15c-.13-.08-.22-.22-.23-.38,0-.14.1-.18.23-.12h0Z"/>
              <path class="cls-60" d="m359.47,180.62l3.71,2.15c.13.08.22.22.23.37,0,.14-.1.18-.23.12l-3.71-2.15c-.13-.08-.22-.22-.23-.38,0-.12.1-.17.23-.12h0Z"/>
              <path class="cls-8" d="m359.47,180.62l3.71,2.15c.13.08.22.22.23.37,0,.14-.1.18-.23.12l-3.71-2.15c-.13-.08-.22-.22-.23-.38,0-.12.1-.17.23-.12h0Z"/>
              <path class="cls-60" d="m360.35,176.12l2.86,1.65c.13.08.22.22.23.38,0,.14-.1.18-.23.12l-2.86-1.66c-.13-.08-.22-.22-.23-.37-.01-.14.09-.18.23-.12h0Z"/>
              <path class="cls-8" d="m360.35,176.12l2.86,1.65c.13.08.22.22.23.38,0,.14-.1.18-.23.12l-2.86-1.66c-.13-.08-.22-.22-.23-.37-.01-.14.09-.18.23-.12h0Z"/>
              <path class="cls-60" d="m360.35,177.38l2.86,1.66c.13.08.22.22.23.37,0,.14-.1.18-.23.12l-2.86-1.66c-.13-.08-.22-.22-.23-.37-.01-.14.09-.18.23-.1h0Z"/>
              <path class="cls-8" d="m360.35,177.38l2.86,1.66c.13.08.22.22.23.37,0,.14-.1.18-.23.12l-2.86-1.66c-.13-.08-.22-.22-.23-.37-.01-.14.09-.18.23-.1h0Z"/>
              <path class="cls-60" d="m359.47,178.13l3.71,2.15c.13.08.22.22.23.37,0,.14-.1.18-.23.12l-3.71-2.15c-.13-.08-.22-.22-.23-.37,0-.14.1-.18.23-.12Z"/>
              <path class="cls-8" d="m359.47,178.13l3.71,2.15c.13.08.22.22.23.37,0,.14-.1.18-.23.12l-3.71-2.15c-.13-.08-.22-.22-.23-.37,0-.14.1-.18.23-.12Z"/>
              <path class="cls-60" d="m360.35,179.87l2.86,1.66c.13.08.22.22.23.37,0,.14-.1.18-.23.12l-2.86-1.66c-.13-.08-.22-.22-.23-.37-.01-.14.09-.18.23-.12Z"/>
              <path class="cls-8" d="m360.35,179.87l2.86,1.66c.13.08.22.22.23.37,0,.14-.1.18-.23.12l-2.86-1.66c-.13-.08-.22-.22-.23-.37-.01-.14.09-.18.23-.12Z"/>
              <path class="cls-53" d="m357.19,182.2l6.61,3.82c.27.17.43.45.44.76v15.08c0,.29-.2.4-.44.25l-6.61-3.82c-.27-.17-.43-.45-.44-.77v-15.07c0-.29.2-.4.44-.25h0Z"/>
              <path class="cls-60" d="m357.81,183.51l.61.35c.13.08.22.22.23.37,0,.14-.1.18-.23.12l-.61-.35c-.13-.08-.21-.22-.22-.37,0-.14.1-.18.22-.12Z"/>
              <path class="cls-20" d="m357.81,183.51l.61.35c.13.08.22.22.23.37,0,.14-.1.18-.23.12l-.61-.35c-.13-.08-.21-.22-.22-.37,0-.14.1-.18.22-.12Z"/>
              <path class="cls-60" d="m358.67,185.26l.61.35c.13.08.21.22.22.38,0,.14-.1.18-.22.12l-.61-.36c-.13-.08-.21-.22-.22-.37,0-.14.1-.18.22-.12Z"/>
              <path class="cls-20" d="m358.67,185.26l.61.35c.13.08.21.22.22.38,0,.14-.1.18-.22.12l-.61-.36c-.13-.08-.21-.22-.22-.37,0-.14.1-.18.22-.12Z"/>
              <path class="cls-60" d="m358.67,186.5l.61.35c.13.08.21.22.22.37,0,.14-.1.18-.22.12l-.61-.35c-.13-.08-.21-.22-.22-.37,0-.14.1-.18.22-.12Z"/>
              <path class="cls-20" d="m358.67,186.5l.61.35c.13.08.21.22.22.37,0,.14-.1.18-.22.12l-.61-.35c-.13-.08-.21-.22-.22-.37,0-.14.1-.18.22-.12Z"/>
              <path class="cls-60" d="m357.81,187.26l.61.35c.13.08.22.22.23.37,0,.14-.1.18-.23.12l-.61-.35c-.13-.08-.21-.22-.22-.37,0-.14.1-.18.22-.12Z"/>
              <path class="cls-20" d="m357.81,187.26l.61.35c.13.08.22.22.23.37,0,.14-.1.18-.23.12l-.61-.35c-.13-.08-.21-.22-.22-.37,0-.14.1-.18.22-.12Z"/>
              <path class="cls-60" d="m359.47,184.47l3.71,2.15c.13.08.22.22.23.37,0,.14-.1.18-.23.12l-3.71-2.15c-.13-.08-.22-.22-.23-.37,0-.14.1-.18.23-.12Z"/>
              <path class="cls-8" d="m359.47,184.47l3.71,2.15c.13.08.22.22.23.37,0,.14-.1.18-.23.12l-3.71-2.15c-.13-.08-.22-.22-.23-.37,0-.14.1-.18.23-.12Z"/>
              <path class="cls-60" d="m360.35,186.21l2.86,1.66c.13.08.22.22.23.37,0,.14-.1.18-.23.12l-2.86-1.66c-.13-.08-.22-.22-.23-.37-.01-.14.09-.18.23-.12Z"/>
              <path class="cls-8" d="m360.35,186.21l2.86,1.66c.13.08.22.22.23.37,0,.14-.1.18-.23.12l-2.86-1.66c-.13-.08-.22-.22-.23-.37-.01-.14.09-.18.23-.12Z"/>
              <path class="cls-60" d="m360.35,187.47l2.86,1.65c.13.08.22.22.23.37,0,.14-.1.18-.23.12l-2.86-1.66c-.13-.08-.22-.22-.23-.37-.01-.14.09-.18.23-.12h0Z"/>
              <path class="cls-8" d="m360.35,187.47l2.86,1.65c.13.08.22.22.23.37,0,.14-.1.18-.23.12l-2.86-1.66c-.13-.08-.22-.22-.23-.37-.01-.14.09-.18.23-.12h0Z"/>
              <path class="cls-60" d="m359.47,188.23l3.71,2.15c.13.08.22.22.23.37,0,.14-.1.18-.23.12l-3.71-2.13c-.13-.08-.22-.22-.23-.37,0-.15.1-.2.23-.13Z"/>
              <path class="cls-8" d="m359.47,188.23l3.71,2.15c.13.08.22.22.23.37,0,.14-.1.18-.23.12l-3.71-2.13c-.13-.08-.22-.22-.23-.37,0-.15.1-.2.23-.13Z"/>
              <path class="cls-60" d="m358.67,189.01l.61.36c.13.08.21.22.22.37,0,.14-.1.18-.22.12l-.61-.35c-.13-.08-.21-.22-.22-.37,0-.14.1-.18.22-.12h0Z"/>
              <path class="cls-20" d="m358.67,189.01l.61.36c.13.08.21.22.22.37,0,.14-.1.18-.22.12l-.61-.35c-.13-.08-.21-.22-.22-.37,0-.14.1-.18.22-.12h0Z"/>
              <path class="cls-60" d="m358.67,190.26l.61.36c.13.08.21.22.22.37,0,.14-.1.18-.22.12l-.61-.36c-.13-.08-.21-.22-.22-.37,0-.14.1-.18.22-.12Z"/>
              <path class="cls-20" d="m358.67,190.26l.61.36c.13.08.21.22.22.37,0,.14-.1.18-.22.12l-.61-.36c-.13-.08-.21-.22-.22-.37,0-.14.1-.18.22-.12Z"/>
              <path class="cls-60" d="m360.35,189.97l2.86,1.66c.13.08.22.22.23.37,0,.14-.1.18-.23.12l-2.86-1.65c-.13-.08-.22-.22-.23-.37-.01-.14.09-.18.23-.12h0Z"/>
              <path class="cls-8" d="m360.35,189.97l2.86,1.66c.13.08.22.22.23.37,0,.14-.1.18-.23.12l-2.86-1.65c-.13-.08-.22-.22-.23-.37-.01-.14.09-.18.23-.12h0Z"/>
              <path class="cls-60" d="m360.35,191.22l2.86,1.66c.13.08.22.22.23.37,0,.14-.1.18-.23.12l-2.86-1.66c-.13-.08-.22-.22-.23-.37-.01-.14.09-.18.23-.12Z"/>
              <path class="cls-8" d="m360.35,191.22l2.86,1.66c.13.08.22.22.23.37,0,.14-.1.18-.23.12l-2.86-1.66c-.13-.08-.22-.22-.23-.37-.01-.14.09-.18.23-.12Z"/>
              <path class="cls-60" d="m357.81,193.52l.61.36c.13.08.22.22.23.37,0,.14-.1.18-.23.12l-.61-.36c-.13-.08-.21-.22-.22-.37,0-.14.1-.18.22-.12Z"/>
              <path class="cls-20" d="m357.81,193.52l.61.36c.13.08.22.22.23.37,0,.14-.1.18-.23.12l-.61-.36c-.13-.08-.21-.22-.22-.37,0-.14.1-.18.22-.12Z"/>
              <path class="cls-60" d="m359.47,194.49l3.71,2.15c.13.08.22.22.23.37,0,.14-.1.18-.23.12l-3.71-2.15c-.13-.08-.22-.22-.23-.37,0-.14.1-.18.23-.12Z"/>
              <path class="cls-8" d="m359.47,194.49l3.71,2.15c.13.08.22.22.23.37,0,.14-.1.18-.23.12l-3.71-2.15c-.13-.08-.22-.22-.23-.37,0-.14.1-.18.23-.12Z"/>
              <path class="cls-60" d="m358.67,195.28l.61.36c.13.08.21.22.22.37,0,.14-.1.18-.22.12l-.61-.36c-.13-.08-.21-.22-.22-.37,0-.14.1-.18.22-.12Z"/>
              <path class="cls-20" d="m358.67,195.28l.61.36c.13.08.21.22.22.37,0,.14-.1.18-.22.12l-.61-.36c-.13-.08-.21-.22-.22-.37,0-.14.1-.18.22-.12Z"/>
              <path class="cls-60" d="m358.67,196.52l.61.35c.13.08.21.22.22.38,0,.14-.1.18-.22.12l-.61-.36c-.13-.08-.21-.22-.22-.37,0-.14.1-.18.22-.12Z"/>
              <path class="cls-20" d="m358.67,196.52l.61.35c.13.08.21.22.22.38,0,.14-.1.18-.22.12l-.61-.36c-.13-.08-.21-.22-.22-.37,0-.14.1-.18.22-.12Z"/>
              <path class="cls-60" d="m360.35,196.23l2.86,1.66c.13.08.22.22.23.37,0,.14-.1.18-.23.12l-2.86-1.66c-.13-.08-.22-.22-.23-.37-.01-.14.09-.17.23-.12Z"/>
              <path class="cls-8" d="m360.35,196.23l2.86,1.66c.13.08.22.22.23.37,0,.14-.1.18-.23.12l-2.86-1.66c-.13-.08-.22-.22-.23-.37-.01-.14.09-.17.23-.12Z"/>
              <path class="cls-60" d="m360.35,197.49l2.86,1.66c.13.08.22.22.23.37,0,.14-.1.18-.23.12l-2.86-1.66c-.13-.08-.22-.22-.23-.37-.01-.14.09-.18.23-.12Z"/>
              <path class="cls-8" d="m360.35,197.49l2.86,1.66c.13.08.22.22.23.37,0,.14-.1.18-.23.12l-2.86-1.66c-.13-.08-.22-.22-.23-.37-.01-.14.09-.18.23-.12Z"/>
              <path class="cls-60" d="m358.67,191.49l.61.36c.13.08.21.22.22.37,0,.14-.1.18-.22.12l-.61-.36c-.13-.08-.21-.22-.22-.37,0-.14.1-.18.22-.12Z"/>
              <path class="cls-20" d="m358.67,191.49l.61.36c.13.08.21.22.22.37,0,.14-.1.18-.22.12l-.61-.36c-.13-.08-.21-.22-.22-.37,0-.14.1-.18.22-.12Z"/>
              <path class="cls-60" d="m357.81,192.26l.61.36c.13.08.22.22.23.37,0,.14-.1.18-.23.12l-.61-.36c-.13-.08-.21-.22-.22-.37,0-.14.1-.18.22-.12Z"/>
              <path class="cls-20" d="m357.81,192.26l.61.36c.13.08.22.22.23.37,0,.14-.1.18-.23.12l-.61-.36c-.13-.08-.21-.22-.22-.37,0-.14.1-.18.22-.12Z"/>
              <path class="cls-60" d="m360.35,192.46l2.86,1.66c.13.08.22.22.23.37,0,.14-.1.18-.23.12l-2.86-1.66c-.13-.08-.22-.22-.23-.37-.01-.14.09-.18.23-.12Z"/>
              <path class="cls-8" d="m360.35,192.46l2.86,1.66c.13.08.22.22.23.37,0,.14-.1.18-.23.12l-2.86-1.66c-.13-.08-.22-.22-.23-.37-.01-.14.09-.18.23-.12Z"/>
              <path class="cls-60" d="m359.47,193.22l3.71,2.15c.13.08.22.22.23.37,0,.14-.1.18-.23.12l-3.71-2.15c-.13-.08-.22-.22-.23-.38,0-.14.1-.18.23-.12h0Z"/>
              <path class="cls-8" d="m359.47,193.22l3.71,2.15c.13.08.22.22.23.37,0,.14-.1.18-.23.12l-3.71-2.15c-.13-.08-.22-.22-.23-.38,0-.14.1-.18.23-.12h0Z"/>
              <path class="cls-60" d="m357.81,197.31l.61.36c.13.08.22.22.23.37,0,.14-.1.18-.23.12l-.61-.35c-.13-.08-.21-.22-.22-.37,0-.14.1-.2.22-.12h0Z"/>
              <path class="cls-20" d="m357.81,197.31l.61.36c.13.08.22.22.23.37,0,.14-.1.18-.23.12l-.61-.35c-.13-.08-.21-.22-.22-.37,0-.14.1-.2.22-.12h0Z"/>
              <path class="cls-60" d="m359.47,198.26l3.71,2.15c.13.08.22.22.23.37,0,.14-.1.18-.23.12l-3.71-2.13c-.13-.08-.22-.22-.23-.37,0-.15.1-.2.23-.13Z"/>
              <path class="cls-8" d="m359.47,198.26l3.71,2.15c.13.08.22.22.23.37,0,.14-.1.18-.23.12l-3.71-2.13c-.13-.08-.22-.22-.23-.37,0-.15.1-.2.23-.13Z"/>
            </g>
          </g>
          <g id="freepik--window--inject-2-2">
            <g class="cls-46">
              <path class="cls-56" d="m393.97,203.4v24.75c.02.36.21.69.52.89l14.22,8.2s.12.05.17.05h.14l.03-.02.03-.02s.07-.08.09-.14c.03-.08.06-.17.06-.25v-24.62c-.02-.36-.21-.69-.52-.89l-14.22-8.2c-.1-.07-.23-.09-.35-.05l-.05.02h0l-.03.03v.02s-.01.02-.01.03c-.01.02-.02.05-.03.07v.05h0v.05s-.05.02-.05.03h-.01Z"/>
            </g>
            <path class="cls-60" d="m394.14,203.06c.12-.05.24-.02.35.05l14.22,8.2c.3.2.5.53.52.89v1.68l.82-.47v-1.66c-.02-.36-.21-.69-.52-.89l-14.22-8.19c-.1-.08-.25-.09-.37-.03-.09.03-.68.38-.8.44h0Z"/>
            <path class="cls-60" d="m393.98,203.4c0-.32.23-.45.51-.29l14.22,8.2c.3.2.5.53.52.89v1.68l-15.23-8.79v-1.68h-.01Z"/>
            <g class="cls-52">
              <path class="cls-44" d="m394.49,203.1l14.22,8.2c.15.09.28.23.36.38l.82-.47c-.09-.15-.21-.28-.36-.37l-14.22-8.18c-.1-.08-.25-.09-.37-.03-.09.06-.68.39-.8.45.12-.05.24-.03.35.03h0Z"/>
            </g>
            <path class="cls-25" d="m410.05,213.4v-1.67c0-.18-.06-.36-.15-.52l-.82.46c.09.15.15.33.15.51v1.68l.82-.47h0Z"/>
            <path class="cls-56" d="m408.48,211.99c.18.15.3.38.29.61,0,.24-.13.37-.29.28-.18-.15-.3-.37-.29-.61,0-.25.12-.37.29-.28Z"/>
            <path class="cls-56" d="m407.43,211.39c.18.15.3.37.29.61,0,.25-.13.37-.29.28-.18-.15-.29-.38-.29-.61,0-.25.13-.37.29-.28Z"/>
            <path class="cls-56" d="m406.39,210.78c.2.15.3.38.3.62s-.13.37-.29.28c-.18-.15-.3-.38-.29-.61,0-.25.12-.38.28-.29Z"/>
            <g class="cls-54">
              <path class="cls-53" d="m409.03,237.24l.06-.03.16-.09h0s.06-.03.08-.05h0l.14-.08.28-.15.07-.03s.06-.03.09-.07.06-.07.07-.1c.05-.08.06-.17.06-.28v-22.96l-.82.47v22.95c0,.09-.02.17-.06.25-.02.05-.06.09-.09.14,0,0-.02.02-.03.02h0Z"/>
            </g>
            <path class="cls-60" d="m395.16,207.92s0-.05.02-.07l.37-.32h.01l.03.03v.37s-.01.02-.02.03l-.2.17.2.4s.02.05.02.07v.38h-.03v-.02l-.38-.77s-.02-.06-.02-.09v-.21.02Z"/>
            <path class="cls-60" d="m396.51,207.56s.01-.03.03-.05h.06l.14.08.03.03v.07l-.65,1.97s-.01.03-.02.05h-.06l-.14-.08-.03-.03v-.07l.65-1.97h-.01Z"/>
            <path class="cls-60" d="m397.49,209.46s0,.05-.02.07l-.37.32h-.02l-.03-.03v-.37s.01-.03.02-.05l.2-.17-.2-.4s-.02-.05-.02-.07v-.37h.03l.02.02.37.76s.02.06.02.09v.21h0Z"/>
            <path class="cls-60" d="m398.51,210.47s.02.02.03.05v.39h-.03l-.17-.1s-.02-.02-.03-.05v-.38h.03l.17.08h0Z"/>
            <path class="cls-60" d="m399.1,210.8s.02.02.03.05v.39h-.03l-.17-.1s-.02-.02-.03-.05c0-.02-.01-.05-.01-.07v-.28s0-.03.01-.05h.03l.17.09h0Z"/>
            <path class="cls-60" d="m399.69,211.15s.03.02.03.05v.39h-.03l-.17-.1s-.02-.02-.03-.05c0-.02-.01-.03-.01-.06v-.29s0-.03.01-.05h.03l.17.1Z"/>
            <path class="cls-60" d="m395.32,210.17l8.55,4.94c.1.07.17.18.18.3,0,.12-.08.15-.18.09l-8.55-4.94c-.1-.07-.17-.17-.18-.3,0-.12.08-.15.18-.09Z"/>
            <path class="cls-64" d="m398.05,216.5l8.55,4.94c.1.07.17.17.18.3,0,.12-.08.15-.18.09l-8.55-4.94c-.1-.07-.17-.18-.18-.3,0-.12.08-.15.18-.09Z"/>
            <path class="cls-64" d="m398.05,219.66l4.09,2.36c.1.07.17.18.18.3,0,.12-.08.15-.18.09l-4.09-2.36c-.1-.07-.17-.17-.18-.3,0-.12.08-.15.17-.09h.01Z"/>
            <path class="cls-60" d="m404.57,215.51l3.4,1.95c.1.07.17.17.18.3,0,.12-.08.15-.18.09l-3.4-1.95c-.1-.07-.17-.17-.18-.3,0-.12.08-.15.18-.09Z"/>
            <path class="cls-60" d="m395.32,227.57l8.55,4.94c.1.07.17.17.18.3,0,.12-.08.15-.18.09l-8.55-4.94c-.1-.07-.17-.18-.18-.3,0-.12.08-.15.18-.09Z"/>
            <path class="cls-60" d="m404.57,232.91l3.4,1.95c.1.07.17.18.18.3,0,.1-.08.15-.18.09l-3.4-1.95c-.1-.07-.17-.18-.18-.3,0-.1.08-.15.18-.09Z"/>
            <path class="cls-60" d="m404.57,228.17l3.4,1.95c.1.07.17.17.18.3,0,.12-.08.15-.18.09l-3.4-1.95c-.1-.07-.17-.18-.18-.3,0-.1.08-.15.18-.09Z"/>
            <path class="cls-60" d="m404.57,229.75l3.4,1.95c.1.07.17.17.18.3,0,.12-.08.15-.18.09l-3.4-1.95c-.1-.07-.17-.18-.18-.3,0-.12.08-.15.18-.09Z"/>
            <path class="cls-60" d="m401.66,226.48l1.91,1.11c.1.07.17.17.18.3,0,.12-.08.15-.18.09l-1.91-1.11c-.1-.07-.17-.18-.18-.3,0-.1.08-.15.18-.09Z"/>
            <path class="cls-60" d="m395.32,211.75l4.98,2.87c.1.07.17.17.18.3,0,.12-.08.15-.18.09l-4.98-2.87c-.1-.07-.17-.18-.18-.3,0-.12.08-.15.18-.09Z"/>
            <path class="cls-20" d="m395.32,211.75l4.98,2.87c.1.07.17.17.18.3,0,.12-.08.15-.18.09l-4.98-2.87c-.1-.07-.17-.18-.18-.3,0-.12.08-.15.18-.09Z"/>
            <path class="cls-60" d="m395.32,213.33l1.7.97c.1.07.17.17.18.3,0,.12-.08.15-.18.09l-1.7-.97c-.1-.07-.17-.17-.18-.3,0-.12.08-.15.18-.09Z"/>
            <path class="cls-20" d="m395.32,213.33l1.7.97c.1.07.17.17.18.3,0,.12-.08.15-.18.09l-1.7-.97c-.1-.07-.17-.17-.18-.3,0-.12.08-.15.18-.09Z"/>
            <path class="cls-60" d="m395.32,214.91l1.7.97c.1.07.17.18.18.3,0,.1-.08.15-.18.09l-1.7-.97c-.1-.07-.17-.17-.18-.3,0-.12.08-.15.18-.09Z"/>
            <path class="cls-20" d="m395.32,214.91l1.7.97c.1.07.17.18.18.3,0,.1-.08.15-.18.09l-1.7-.97c-.1-.07-.17-.17-.18-.3,0-.12.08-.15.18-.09Z"/>
            <path class="cls-60" d="m395.32,216.5l1.7.97c.1.07.17.17.18.3,0,.12-.08.15-.18.09l-1.7-.97c-.1-.07-.17-.18-.18-.3,0-.12.08-.15.18-.09Z"/>
            <path class="cls-20" d="m395.32,216.5l1.7.97c.1.07.17.18.18.3,0,.12-.08.15-.18.09l-1.7-.97c-.1-.07-.17-.18-.18-.3,0-.12.08-.15.18-.09Z"/>
            <path class="cls-14" d="m398.05,218.08l4.98,2.87c.1.07.17.18.18.3,0,.1-.08.15-.18.09l-4.98-2.87c-.1-.07-.17-.18-.18-.3,0-.1.08-.15.18-.09Z"/>
            <path class="cls-14" d="m403.75,221.35l2.17,1.26c.1.07.17.17.18.3,0,.12-.08.15-.18.09l-2.17-1.26c-.1-.07-.17-.17-.18-.3,0-.12.08-.15.18-.09Z"/>
            <path class="cls-20" d="m398.05,218.08l4.98,2.87c.1.07.17.18.18.3,0,.1-.08.15-.18.09l-4.98-2.87c-.1-.07-.17-.18-.18-.3,0-.1.08-.15.18-.09Z"/>
            <path class="cls-20" d="m403.75,221.35l2.17,1.26c.1.07.17.17.18.3,0,.12-.08.15-.18.09l-2.17-1.26c-.1-.07-.17-.17-.18-.3,0-.12.08-.15.18-.09Z"/>
            <path class="cls-60" d="m395.32,218.08l1.7.97c.1.07.17.17.18.3,0,.12-.08.15-.18.09l-1.7-.97c-.1-.07-.17-.17-.18-.3,0-.12.08-.15.18-.09Z"/>
            <path class="cls-20" d="m395.32,218.08l1.7.97c.1.07.17.17.18.3,0,.12-.08.15-.18.09l-1.7-.97c-.1-.07-.17-.17-.18-.3,0-.12.08-.15.18-.09Z"/>
            <path class="cls-60" d="m401,215.03l2.17,1.26c.1.07.17.18.18.3,0,.1-.08.15-.18.09l-2.17-1.26c-.1-.07-.17-.18-.18-.3,0-.1.08-.15.18-.09Z"/>
            <path class="cls-20" d="m401,215.03l2.17,1.26c.1.07.17.18.18.3,0,.1-.08.15-.18.09l-2.17-1.26c-.1-.07-.17-.18-.18-.3,0-.1.08-.15.18-.09Z"/>
            <path class="cls-44" d="m400.1,222.43l4.98,2.87c.1.07.17.18.18.3,0,.12-.08.15-.18.09l-4.98-2.88c-.1-.07-.17-.17-.18-.3,0-.09.08-.15.18-.09h0Z"/>
            <path class="cls-44" d="m402.99,225.67l4.99,2.88c.1.07.17.18.18.3,0,.1-.08.15-.18.09l-4.98-2.87c-.1-.07-.17-.18-.18-.3-.02-.1.07-.15.17-.1h0Z"/>
            <path class="cls-44" d="m405.8,225.71l2.18,1.25c.1.07.17.17.18.3,0,.12-.08.15-.18.09l-2.17-1.26c-.1-.07-.17-.18-.18-.3-.01-.1.08-.14.17-.08h0Z"/>
            <path class="cls-64" d="m405.8,231.97l2.17,1.26c.1.07.17.18.18.3,0,.1-.08.15-.18.09l-2.17-1.26c-.1-.07-.17-.18-.18-.3,0-.1.09-.15.18-.09Z"/>
            <path class="cls-60" d="m398.05,214.91l4.98,2.88c.1.07.17.17.18.3,0,.12-.08.15-.18.09l-4.98-2.89c-.1-.07-.17-.17-.18-.3,0-.09.08-.14.18-.08Z"/>
            <path class="cls-20" d="m398.05,214.91l4.98,2.88c.1.07.17.17.18.3,0,.12-.08.15-.18.09l-4.98-2.89c-.1-.07-.17-.17-.18-.3,0-.09.08-.14.18-.08Z"/>
            <path class="cls-60" d="m403.75,218.2l2.17,1.26c.1.07.17.18.18.3,0,.1-.08.15-.18.09l-2.17-1.26c-.1-.07-.17-.18-.18-.3,0-.13.08-.16.18-.09Z"/>
            <path class="cls-20" d="m403.75,218.2l2.17,1.26c.1.07.17.18.18.3,0,.1-.08.15-.18.09l-2.17-1.26c-.1-.07-.17-.18-.18-.3,0-.13.08-.16.18-.09Z"/>
          </g>
          <g id="freepik--Mouse--inject-2">
            <path class="cls-25" d="m369.78,236.32l3.06,1.76c1.07.55,2.36.48,3.37-.17l5.04-3.68c.9-.65.84-1.61-.12-2.19l-1.53-.89c-1.11-.57-2.4-.6-3.54-.1l-6.22,3.37c-.99.51-1.03,1.36-.06,1.91h0Z"/>
            <path class="cls-53" d="m381.33,232.63l-3.48,2.72-2.57,2.01c-.25.12-.54.18-.82.2-.43.03-.84-.06-1.22-.25l-2.73-1.58h-.01c-.91-.58-1.18-1.78-.61-2.68.02-.02.03-.06.06-.08l.08-.12c.54-.72,1.31-1.21,2.2-1.4l1.38-.28c2.24-.46,4.08-.68,4.29-.53l3.43,1.98h.01,0Z"/>
            <path class="cls-60" d="m379.38,234.15l.2-.15-3.08-1.78,2.69-.83-.28-.16-2.69.83-1.83-1.06-.35.07,5.33,3.08h.01Z"/>
            <path class="cls-70" d="m375.57,237.2h0l2.44-1.76,3.3-2.39v-.39s0-.02-.01-.03h-.02c-.24-.08-1.68.35-3.41,1.04l-1.14.46c-1.4.55-2.31,1.89-2.3,3.39v.06c.29-.01.57-.08.82-.2l.32-.17h0Z"/>
          </g>
        </g>
      </g>
      <g id="freepik--Plant--inject-2-2">
        <g id="freepik--Pot--inject-2">
          <path class="cls-60" d="m381.64,286.1c-3.37-3.47-5.34-17.59-2.05-20.34h16.69c3.28,2.76,1.29,16.87-2.05,20.34l-.09.09s-.07.08-.12.12c-.09.09-.2.18-.3.28l-.08.07c-.08.07-.16.13-.25.2-.14.1-.29.2-.44.28-2.77,1.61-7.25,1.61-10.02,0h0c-.15-.08-.29-.18-.44-.29-.08-.06-.16-.12-.24-.18l-.09-.08c-.1-.08-.2-.17-.3-.27-.05-.05-.09-.09-.14-.14-.02-.02-.06-.06-.08-.08h.01Z"/>
          <g class="cls-52">
            <path class="cls-44" d="m381.64,286.1c-3.37-3.47-5.34-17.59-2.05-20.34h16.69c3.28,2.76,1.29,16.87-2.05,20.34l-.09.09s-.07.08-.12.12c-.09.09-.2.18-.3.28l-.08.07c-.08.07-.16.13-.25.2-.14.1-.29.2-.44.28-2.77,1.61-7.25,1.61-10.02,0h0c-.15-.08-.29-.18-.44-.29-.08-.06-.16-.12-.24-.18l-.09-.08c-.1-.08-.2-.17-.3-.27-.05-.05-.09-.09-.14-.14-.02-.02-.06-.06-.08-.08h.01Z"/>
          </g>
          <path class="cls-60" d="m394.82,264.65c3.81,2.23,3.81,5.84,0,8.05-3.81,2.21-9.99,2.23-13.79,0s-3.81-5.84,0-8.05,9.99-2.23,13.79,0Z"/>
          <g class="cls-62">
            <path class="cls-44" d="m394.82,264.65c3.81,2.23,3.81,5.84,0,8.05-3.81,2.21-9.99,2.23-13.79,0s-3.81-5.84,0-8.05,9.99-2.23,13.79,0Z"/>
          </g>
          <path class="cls-60" d="m392.99,265.72c2.79,1.61,2.79,4.28,0,5.92s-7.33,1.61-10.13,0-2.79-4.28,0-5.92c2.79-1.64,7.33-1.64,10.13,0Z"/>
          <g class="cls-65">
            <path d="m392.99,265.72c2.79,1.61,2.79,4.28,0,5.92s-7.33,1.61-10.13,0-2.79-4.28,0-5.92c2.79-1.64,7.33-1.64,10.13,0Z"/>
          </g>
          <path class="cls-55" d="m382.85,268.52c2.79-1.61,7.33-1.61,10.13,0,.68.37,1.26.9,1.67,1.56-.42.65-.99,1.19-1.67,1.56-2.79,1.61-7.33,1.61-10.13,0-.68-.37-1.26-.91-1.67-1.56.43-.65.99-1.18,1.67-1.56Z"/>
          <g id="freepik--Plants--inject-2-2">
            <path class="cls-60" d="m386.55,261.39c-.2-.38-.33-.8-.43-1.22-.18-1.01.07-2.18.89-2.81.32-.24.75-.43.9-.82.06-.22.06-.45,0-.67-.15-.86-.44-1.76-.21-2.61.27-.78.85-1.42,1.61-1.74.75-.31,1.55-.52,2.35-.61.44-.05.85-.17,1.25-.36.46-.27.61-.73.9-1.13.33-.45.73-.85,1.14-1.22.85-.76,1.91-1.38,3.09-1.33,2.46.1,2.39,2.21,1.68,3.82s-.9,2.12.65,3.79,1.53,3.73-.3,4.86-3.02,1.29-2.3,3.52c.65,1.98,1.05,3.67-.78,5.79-1.19,1.37-2.8,2.34-4.82,2.27-.81-.06-1.61-.24-2.36-.54-.55-.28-.18-.7-.37-1.26l-1.21-3.54c-.28-.95-.6-1.88-.97-2.79-.22-.48-.5-.93-.73-1.4h.01Z"/>
            <g class="cls-74">
              <path d="m386.55,261.39c-.2-.38-.33-.8-.43-1.22-.18-1.01.07-2.18.89-2.81.32-.24.75-.43.9-.82.06-.22.06-.45,0-.67-.15-.86-.44-1.76-.21-2.61.27-.78.85-1.42,1.61-1.74.75-.31,1.55-.52,2.35-.61.44-.05.85-.17,1.25-.36.46-.27.61-.73.9-1.13.33-.45.73-.85,1.14-1.22.85-.76,1.91-1.38,3.09-1.33,2.46.1,2.39,2.21,1.68,3.82s-.9,2.12.65,3.79,1.53,3.73-.3,4.86-3.02,1.29-2.3,3.52c.65,1.98,1.05,3.67-.78,5.79-1.19,1.37-2.8,2.34-4.82,2.27-.81-.06-1.61-.24-2.36-.54-.55-.28-.18-.7-.37-1.26l-1.21-3.54c-.28-.95-.6-1.88-.97-2.79-.22-.48-.5-.93-.73-1.4h.01Z"/>
            </g>
            <path class="cls-44" d="m389.89,270.38c.07-.02.13-.09.12-.17-.1-12.12,6.59-19.36,6.65-19.44.07-.07.07-.18,0-.25s-.18-.07-.25,0-6.85,7.42-6.75,19.69c0,.1.08.18.17.18h.06Z"/>
            <path class="cls-44" d="m391.84,259.09h.03c2.18-1.38,6.05-2.41,6.09-2.42.09-.02.15-.13.13-.22s-.12-.15-.22-.13h0c-.16.05-3.97,1.04-6.19,2.44-.08.05-.12.16-.06.24h0c.05.07.13.1.21.08h.01Z"/>
            <path class="cls-44" d="m392.5,257.42h0c.09-.03.14-.15.1-.24-.51-1.21-1.19-2.35-2.01-3.37-.06-.08-.17-.09-.25-.02h0c-.07.07-.08.18-.02.25.8.99,1.45,2.1,1.95,3.28.03.09.14.14.23.1h0Z"/>
            <path class="cls-60" d="m388.19,271.67c-1.73.53-3.56.6-5.33.2-3.06-.65-4.92-3.52-4.92-3.52,0,0,3.31-1.33,5.22-1.45-1.93-.29-3.87-.24-5.79.13,0,0-1.76-.65-1.43-3.64,0,0,1.66-1.22,5.51-.75,0,0-1.91-1.37-5.28-1.78-.27,0,.09-3.89.42-5.62s.97-1.46,2.33-1.31,5.44,1.07,5.96,2.08.01,3.54.01,3.54c.7-.97,1.1-2.13,1.12-3.33,0,0,1.53.57,2.35,1.29.61.5,1.12,1.12,1.46,1.83-.2,1.36-.83,3.45-1.73,4.61,0,0,2.03-1.31,2.49-3.73,1.01,1.38,1.58,3.03,1.61,4.75-.05,3.04-1.42,5.32-4.04,6.69h.02Z"/>
            <path class="cls-27" d="m388.19,271.67c-1.73.53-3.56.6-5.33.2-3.06-.65-4.92-3.52-4.92-3.52,0,0,3.31-1.33,5.22-1.45-1.93-.29-3.87-.24-5.79.13,0,0-1.76-.65-1.43-3.64,0,0,1.66-1.22,5.51-.75,0,0-1.91-1.37-5.28-1.78-.27,0,.09-3.89.42-5.62s.97-1.46,2.33-1.31,5.44,1.07,5.96,2.08.01,3.54.01,3.54c.7-.97,1.1-2.13,1.12-3.33,0,0,1.53.57,2.35,1.29.61.5,1.12,1.12,1.46,1.83-.2,1.36-.83,3.45-1.73,4.61,0,0,2.03-1.31,2.49-3.73,1.01,1.38,1.58,3.03,1.61,4.75-.05,3.04-1.42,5.32-4.04,6.69h.02Z"/>
            <path class="cls-44" d="m388.59,271.42c-.06-.02-.1-.08-.12-.15-.46-5.79-6.94-14.82-9.8-16.64-.08-.06-.1-.16-.06-.24.06-.08.16-.1.24-.06,2.92,1.85,9.49,11.01,9.95,16.91,0,.09-.06.17-.15.18h-.07Z"/>
          </g>
        </g>
      </g>
      <g id="freepik--Character--inject-2-2">
        <g id="freepik--character--inject-2-3">
          <path class="cls-75" d="m330.04,267.78c0-.07-1.04-3.83-1.04-3.83,0,0,.35.35,2.51-.23.82-.24,1.61-.58,2.36-.99l.62,2.74c.58,1.06,2.5.57,4.6.32.36-.05.72-.1,1.08-.16h.02c1.13-.06,2.27.62,1.1,1.59s-3.13,1.33-4.92,1.66c-2.16.4-5.94,1.04-6.33-1.11h-.01Z"/>
          <path class="cls-70" d="m345.12,267.46c.15.37.21.76.15,1.15-.03.42-1.07,1.83-2.92,2.71s-4.09.92-5.14,1.23-2.03.91-3.28,1.21-2.48.46-3.74-.36c-.23-.36-.48-1.18-.42-1.26.23-.22,15.33-4.69,15.33-4.69h.01Z"/>
          <path class="cls-60" d="m334.83,265.87c.81.55,2.47.17,4.27-.03,1.7-.2,3.61-.8,4.76-.39s2.11,1.75.55,3.49c-.45.51-1.41,1.38-2.17,1.66-1.95.69-3.68.75-4.92,1.06-1.61.4-2.5,1.12-4,1.29-1.95.23-3.17-.28-3.51-.8s-.65-4.69.18-4.61c0,0,.35,1.35,3.52.03,1.38-.58,1.36-1.43,1.3-1.73v.02Z"/>
          <path class="cls-33" d="m334.83,265.87c.81.55,2.47.17,4.27-.03,1.7-.2,3.61-.8,4.76-.39s2.11,1.75.55,3.49c-.45.51-1.41,1.38-2.17,1.66-1.95.69-3.68.75-4.92,1.06-1.61.4-2.5,1.12-4,1.29-1.95.23-3.17-.28-3.51-.8s-.65-4.69.18-4.61c0,0,.35,1.35,3.52.03,1.38-.58,1.36-1.43,1.3-1.73v.02Z"/>
          <path class="cls-49" d="m340.2,268.11s-.18-1.76-1.49-2.23c-.24-.1-.52-.07-.72.09,0,0,1.21.17,1.61,2.25,0,0,.06.14.32.09.08-.02.28-.06.25-.2h.01Z"/>
          <path class="cls-49" d="m336.89,266.11s0-.06.3-.12c.12-.02.24-.01.36.03,0,0,.97.43,1.15,2.27,0,0,0,.22-.3.28-.14.05-.29-.02-.33-.16v-.02s-.2-1.94-1.16-2.3h-.01Z"/>
          <path class="cls-49" d="m335.84,266.15s.06-.12.28-.12c.29,0,.36.12.36.12,0,0,.69.72.7,2.25,0,0,.03.25-.32.29s-.32-.27-.32-.27c0,0-.13-1.96-.69-2.27Z"/>
          <path class="cls-53" d="m328.71,242.25c1.59,4.77,5.8,21.21,5.8,21.21,0,0-2.74,2.47-5.72,1.34l-7.08-20.47,7-2.09h0Z"/>
          <path class="cls-75" d="m340.95,273.1c-.32-.48-1.55-3.83-1.55-3.83,0,0,1.27.73,3.46.21,1.11-.27,2.16-1.48,2.16-1.48l.93,3.21c.55,1.07,2.34.72,4.44.53.36-.03.72-.08,1.08-.14h.02c1.13-.03,2.27.67,1.05,1.61s-3.16,1.26-4.96,1.53c-2.16.32-5.43.14-6.64-1.67v.02Z"/>
          <path class="cls-70" d="m357.28,273c.16.39.21.82.14,1.25-.06.45-1.21,1.95-3.18,2.83s-4.42.89-5.56,1.19-2.2.92-3.55,1.22c-1.35.3-2.68.43-3.99-.48-.24-.39-.5-1.28-.4-1.36.22-.22,16.56-4.64,16.56-4.64h-.01Z"/>
          <path class="cls-60" d="m346.29,270.98c.13.09.27.17.4.24.14.06.29.09.44.09.36.03.7.05,1.06.02.89-.05,1.78-.17,2.66-.25,1.82-.16,3.89-.75,5.12-.29s2.35,1.95.63,3.76c-.66.72-1.44,1.3-2.3,1.74-2.04.85-4.15.69-5.51.99-1.75.38-2.72,1.13-4.34,1.28-2.09.2-3.39-.38-3.74-.95-.2-.32.02-1.95-.24-3.23-.23-1.1-.17-1.85.23-1.79.08.14.18.28.3.39.13.15.29.28.46.37.25.12.52.21.78.27.47.14.96.21,1.45.2.14,0,.28-.05.39-.13.13-.14.21-.31.23-.5l.1-.48c.01-.09.05-.17.09-.25.07-.08.15-.15.24-.2.31-.14.59-.35.8-.61.13-.23.21-.48.23-.75,0-.05.02-.09.05-.13.06-.05.15,0,.21.03l.23.14v.02Z"/>
          <path class="cls-33" d="m346.29,270.98c.13.09.27.17.4.24.14.06.29.09.44.09.36.03.7.05,1.06.02.89-.05,1.78-.17,2.66-.25,1.82-.16,3.89-.75,5.12-.29s2.35,1.95.63,3.76c-.66.72-1.44,1.3-2.3,1.74-2.04.85-4.15.69-5.51.99-1.75.38-2.72,1.13-4.34,1.28-2.09.2-3.39-.38-3.74-.95-.2-.32.02-1.95-.24-3.23-.23-1.1-.17-1.85.23-1.79.08.14.18.28.3.39.13.15.29.28.46.37.25.12.52.21.78.27.47.14.96.21,1.45.2.14,0,.28-.05.39-.13.13-.14.21-.31.23-.5l.1-.48c.01-.09.05-.17.09-.25.07-.08.15-.15.24-.2.31-.14.59-.35.8-.61.13-.23.21-.48.23-.75,0-.05.02-.09.05-.13.06-.05.15,0,.21.03l.23.14v.02Z"/>
          <path class="cls-49" d="m351.99,273.56s-.15-1.9-1.53-2.43c-.25-.13-.55-.09-.77.08,0,0,1.29.22,1.66,2.46,0,0,.07.15.35.1.09-.01.3-.05.3-.21h0Z"/>
          <path class="cls-49" d="m348.48,271.34s0-.07.32-.12c.13-.02.27,0,.38.05,0,0,1.04.47,1.18,2.47,0,0,0,.24-.32.3-.15.05-.31-.03-.37-.18v-.02s-.16-2.09-1.19-2.49h0Z"/>
          <path class="cls-49" d="m347.35,271.35s.06-.12.31-.12c.31,0,.38.13.38.13,0,0,.73.78.69,2.43,0,0,.02.28-.37.3s-.32-.3-.32-.3c0,0-.08-2.12-.69-2.46h0Z"/>
          <path class="cls-56" d="m339.88,247.89c1.25,3.85,4.44,14.8,5.9,20.41,0,0-2.62,2.36-6,2.16l-8.13-21.08,3.24-2.01,4.98.52h0Z"/>
          <path class="cls-56" d="m313.11,300.51c.29,0,.53-.24.53-.53h0v-33.88c0-.29-.24-.53-.53-.53s-.53.23-.53.53v33.89c0,.29.24.52.53.52Z"/>
          <path class="cls-56" d="m292.15,288.2c.22,0,.4-.13.48-.32l10.39-26.31c.13-.25.02-.58-.23-.7s-.58-.02-.7.23c-.01.02-.02.06-.03.08l-10.4,26.28c-.1.27.02.58.3.68.06.03.13.05.2.05h0Z"/>
          <path class="cls-56" d="m293.39,285.02c.15,0,.29-.06.38-.16l19.34-20.46,19.31,20.38c.22.2.54.18.75-.02.18-.2.18-.5.02-.7l-19.69-20.78c-.1-.1-.24-.16-.38-.16h0c-.15,0-.29.06-.38.16l-19.72,20.86c-.2.21-.2.54.02.75.09.09.23.14.36.15h-.01Z"/>
          <path class="cls-56" d="m334.08,288.2c.07,0,.14-.01.2-.03.27-.1.4-.42.3-.68l-10.39-26.31c-.07-.29-.36-.46-.63-.39-.29.07-.46.36-.39.63.01.05.03.09.06.14l10.39,26.31c.08.2.27.33.48.33h-.01Z"/>
          <path class="cls-60" d="m334.33,254.47c.38-2.12-1.35-3.78-4.61-5.99-3.02-1.98-6.17-3.76-9.43-5.31-2.73-1.25-5.51-1.13-9.01.65-4.86,2.49-19.44,11.34-19.44,11.34,0,0,21.81,12.32,26.01,11.76s14.68-7.37,15.52-9.78.97-2.69.97-2.69h0Z"/>
          <g class="cls-63">
            <path d="m334.33,254.47c.38-2.12-1.35-3.78-4.61-5.99-3.02-1.98-6.17-3.76-9.43-5.31-2.73-1.25-5.51-1.13-9.01.65-4.86,2.49-19.44,11.34-19.44,11.34,0,0,21.81,12.32,26.01,11.76s14.68-7.37,15.52-9.78.97-2.69.97-2.69h0Z"/>
          </g>
          <path class="cls-60" d="m315.74,264.36c3.13,2.84,6.4.39,11.58-2.96,5.86-3.81,7.01-6.92,7.01-6.92,0,0,0,2.33-.44,3.43s-1.38,2.33-5.6,5.25c-4.22,2.92-7.29,4.37-10.13,4.91l-2.24-.31"/>
          <path class="cls-40" d="m327.32,261.39c5.86-3.81,7.01-6.92,7.01-6.92,0,0,0,2.33-.44,3.43s-1.38,2.33-5.6,5.25c-4.22,2.92-7.29,4.37-10.13,4.91l-2.24-.31-.17-3.39c3.13,2.84,6.4.39,11.58-2.96h-.01Z"/>
          <path class="cls-60" d="m292.94,284.06l-1.61,3.7s-.01.07-.02.09v.07c.03.1.1.2.21.24.27.15.59.16.86.05.08-.03.14-.09.17-.17h0v-.05l1.49-3.47-1.11-.46h.01Z"/>
          <path class="cls-60" d="m333.36,284.22l1.38,3.62v.16c-.03.1-.12.18-.21.23-.27.14-.58.14-.83,0-.07-.03-.13-.09-.16-.17h0v-.05l-1.27-3.4,1.1-.39h-.01Z"/>
          <path class="cls-60" d="m312.5,297.36v3c.01.1.08.2.17.24.27.14.59.14.86,0,.1-.05.16-.14.17-.24v-3c-.38-.2-.83-.2-1.21,0h0Z"/>
          <path class="cls-53" d="m300.58,241.78c1.25,1.45,12.55-1.8,15.56-2.21,4.83-.65,8.75-1.14,10.4-.62s2.34,1.35,2.84,3.31c.59,2.32.9,3.49.9,3.49,0,0-8.03,3.08-14.36,3.82s-15.34-7.8-15.34-7.8h0Z"/>
          <path class="cls-56" d="m298.45,243.9c-1.26,4.77-2.38,10.33.52,13.37,1.95,2.05,11.76,7.37,18.09,5.27,6.24-2.06,19.16-11.66,20.45-12.62s2.47-1.61,2.35-2.03c-1.74-5.78-4.29-6.24-9.01-5.19-5.78,1.27-18.44,6.44-18.44,6.44l-13.97-5.25h0Z"/>
          <polygon class="cls-75" points="327.14 213.19 322.79 218.11 315.75 214.78 320.67 207.97 327.14 213.19"/>
          <path class="cls-58" d="m332.55,203.83s1.79,2.57,1.59,2.84-1.45.52-1.45.52l-.14-3.36h0Z"/>
          <path class="cls-70" d="m332.52,205.54c-1.18,0-2.13-.96-2.13-2.13s.96-2.13,2.13-2.13,2.13.96,2.13,2.13-.96,2.13-2.13,2.13Zm0-3.87c-.96,0-1.74.78-1.74,1.74s.78,1.74,1.74,1.74,1.74-.78,1.74-1.74h0c0-.96-.78-1.73-1.74-1.73h0Z"/>
          <path class="cls-75" d="m327.6,196.72c3.51.65,4.53,2.17,5.01,7.69.47,5.78-.07,7.61-.82,8.41-.51.54-3.36.7-4.8.32-1.81-.46-5.92-1.8-7.89-4.67-2.32-3.37-3.02-8-.65-9.95,3.31-2.74,7.73-2.06,9.15-1.8h0Z"/>
          <path class="cls-58" d="m327.14,213.19c1.51.32,3.81.14,4.49-.25-.84.18-1.71.15-2.54-.09-.82-.22-1.6-.57-2.32-1.03l.38,1.37h-.01Z"/>
          <path class="cls-70" d="m333.24,198.98h0c-.97.67-2.17.96-3.34,1.14.09.93-.21,1.87-.5,2.76-.2.62-.93,2.57-1.72,1.5-.58-.77-1.1-1.48-2.19-1.29-1.81.32-2,2.63-.82,4.01s2.23.82,2.23.82c0,0,.16,2.49-1.15,4.26,0,0-1.96,1.21-4.72.3-1.74-.58-4.24-2.77-5.17-4.47-2.55-4.71-2.56-9.21.53-10.6.29-2.27,2.03-3.31,4.04-3.82,2.78-.7,5.67,1.04,8.36-.12.57-.24,1.08-.59,1.67-.8.31-.15.68-.15,1,0,.23.2.38.46.43.76.17.53.14,1.12-.1,1.61.4-.22.83-.37,1.27-.46.45-.09.91.01,1.28.29.31.29.5.69.51,1.12.1,1.19-.62,2.33-1.59,3h-.01Z"/>
          <path class="cls-70" d="m316.34,198.16l-2.11-1.19c.3-.6,1.03-.84,1.63-.54s.84,1.03.54,1.63c-.01.03-.03.07-.06.09h0Z"/>
          <rect class="cls-70" x="327.6" y="203.59" width="6.89" height=".33" transform="translate(-31.76 64.18) rotate(-10.57)"/>
          <path class="cls-75" d="m341.83,216.07c-.18-.3-.59-.37-.92-.48-.62-.22-1.11-.72-1.71-.97-.68-.29-1.44-.33-2.16-.15-.24.06-.48.14-.72.23-.45.18-.88.39-1.29.65-1.72,1.01-3.01,3.31-4.69,4.36-.63.39-1.21.75-1.8,1.11l4.04,3.58c.63-.54,1.3-1.04,2-1.51.99-.59,2-.6,3.1-.76.77-.13,1.52-.32,2.27-.57.28-.05.52-.21.67-.44.1-.35-.09-.72-.44-.83-.38-.09-.78-.15-1.18-.16-.29-.05-1.07.13-1.25-.16-.09-.15.02-.35.14-.48.7-.88,1.58-1.8,2.7-2.06.35-.06.68-.18.97-.39.3-.21.42-.61.27-.95h0Z"/>
          <path class="cls-60" d="m317.73,212.05c-4.28-2.34-8.18-.83-9.58,2.17-1.27,2.72-3.94,13.24-3.94,13.24,1.28,2.42,13.53-15.41,13.53-15.41Z"/>
          <path class="cls-60" d="m317.08,212.9l.65-.84c-4.83-2.3-9.16.72-12.96,6.65-4.11,6.39-6.26,15.56-6.29,25.25,0,0,.82,4.35,6.32,6.53,5.84,2.31,13.97,1.33,16.5-4.72,0,0,.05-6.03,1.89-9.01,1.19-1.93,3.96-6.19,6.02-9.27,1.8-2.68,3.19-8.75-.55-10.97-.99-.58-2.01-1.1-3.04-1.56-3.43,1.13-8.96-.7-8.52-2.05h-.01Z"/>
          <path class="cls-39" d="m317.09,212.91l.63-.86c-4.83-2.3-9.16.72-12.96,6.65-4.11,6.39-6.26,15.56-6.29,25.25,0,0,.82,4.35,6.32,6.53,5.84,2.31,13.97,1.33,16.5-4.72,0,0,.05-6.03,1.89-9.01,1.19-1.93,3.96-6.19,6.02-9.27,1.8-2.68,3.19-8.75-.55-10.97-.99-.58-2.01-1.1-3.04-1.56-3.43,1.13-8.95-.68-8.51-2.03h-.01Z"/>
          <path class="cls-34" d="m330.76,223.6c.27-1.15.31-2.34.15-3.52h0c-.88,2.06-2.11,3.94-3.64,5.58-1.97,2.08-4.39,3.68-6.22,5.88-1.95,2.33-3.32,5.14-4.94,7.68-.65,1.03-1.53,2.99-2.74,3.07-1.48.09-2.88-1.7-3.68-2.94-1.29-1.97-2.38-4.44-3.97-6.16-1.4-1.51-3.54-3.45-5.43-2.57h0c-.14.51-.28,1.01-.4,1.52s-.24,1.04-.36,1.57v.06c-.1.53-.21,1.05-.3,1.58v.08c-.09.53-.17,1.05-.24,1.58-.32,2.3-.48,4.61-.48,6.94,0,0,.82,4.35,6.32,6.53,5.84,2.31,13.97,1.33,16.5-4.72,0,0,.05-6.03,1.89-9.01.18-.3.42-.65.65-1.06h0l.05-.07c.21-.32.44-.69.68-1.07,0-.02.03-.05.05-.07v-.03c.53-.82,1.12-1.73,1.72-2.66l.28-.43c.59-.9,1.19-1.81,1.76-2.68h0c.2-.29.38-.57.57-.84.08-.12.16-.24.23-.36h0c.07-.09.13-.2.2-.3l.06-.09.14-.24.06-.12.15-.29s.02-.05.03-.07c.06-.13.12-.25.17-.39h0v-.03c.05-.13.1-.24.15-.37,0-.03.02-.06.03-.09.05-.12.09-.24.14-.36v-.07c.08-.22.15-.46.22-.69h0c.07-.24.13-.47.17-.72v-.03l.07-.03h-.02Z"/>
          <path class="cls-75" d="m353.18,229.48c-.31.37-.65.72-1,1.04-1.48,1.34-3.21,1.98-5.21,3.29-1.61,1.05-4.13,2.59-6.24,3.91-2.13,1.31-4.42,2.36-6.8,3.14-1.95.58-3.06.6-4.21-2.54-.57-1.53-1.01-3.13-1.51-4.68-.73-2.33-1.44-4.67-2.16-7-1.06-3.51-2.59-6.42,3.24-9.65,2.54,1.45,3.51,2.04,4.3,5.07.96,3.64,2.49,10.82,2.49,10.82,2.06-.73,4.07-1.58,6.02-2.57.74-.37,1.65-.62,2.18-1.28.35-.45.66-.93.92-1.44.25-.45.43-.93.7-1.36.55-.77,1.2-1.49,1.91-2.11.12-.14.28-.24.46-.28.2,0,.38.12.47.29.22.38.01.74-.09,1.12-.13.44-.25.88-.38,1.29,1.49-.86,2.76-2.04,3.71-3.47.08-.14.18-.25.29-.37.12-.12.28-.17.44-.16.39.05.77.68.8,1.04-.02.37-.01.74.03,1.1.09.32.32.61.43.95.1.35.18.69.22,1.05.05.77-.16,1.55-.59,2.2-.13.22-.28.42-.44.61h.01Z"/>
          <path class="cls-60" d="m328.94,216.71c2.21.9,3.82,1.91,4.83,5.31s2.11,8.85,2.11,8.85c0,0,.02,1.14-2.68,2.73-1.57.95-3.46,1.2-5.22.7l-2.03-6.55s-3.61-8.76,2.99-11.03h0Z"/>
          <path class="cls-60" d="m315.92,267.76c-1.79-.09-3.18-1.4-7.42-3.17-7.83-3.26-13.7-5.88-15.94-9.98s-3.82-15.94-3.26-21.06c.05-.58.18-1.15.38-1.7l-.55-.08,1.43-1.21h0c1.46-1.19,3.84-.13,5.64.85,5.12,2.79,9.13,5.51,12.32,15.28,2.39,7.36,3.96,14.07,7.24,17.67"/>
          <path class="cls-18" d="m289.68,231.86l-.55-.08,1.43-1.21h0c1.46-1.19,3.84-.13,5.64.85,5.12,2.79,9.13,5.51,12.32,15.28,2.39,7.36,3.96,14.07,7.24,17.67l.17,3.39c-1.79-.09-3.18-1.4-7.42-3.17-7.84-3.26-13.71-5.87-15.95-9.98s-3.82-15.94-3.26-21.06c.06-.58.18-1.15.38-1.7Z"/>
          <path class="cls-60" d="m294.71,232.68c5.12,2.79,9.13,5.51,12.32,15.28,3.18,9.77,4.9,18.43,11.15,20.1,0,0-2.83,1.12-11.48-2.54-2.76-1.16-6.1-3.29-8.29-4.52-4.3-2.41-6.91-4.39-7.32-5.13-2.27-4.08-3.82-15.94-3.26-21.06s4.31-3.54,6.89-2.15h0Z"/>
        </g>
      </g>
      <g id="freepik--speech-bubble--inject-2">
        <g id="freepik--speech-bubble--inject-2-2">
          <path class="cls-60" d="m323.52,189.27l-1.41-2.66,1.14-3.29v-2.01l-3.48,2.01v2.01l1.5,2.59s.06.07.1.09h0l2.16,1.26h-.01Z"/>
          <path class="cls-22" d="m323.52,189.27l-1.41-2.66,1.14-3.29v-2.01l-3.48,2.01v2.01l1.5,2.59s.06.07.1.09h0l2.16,1.26h-.01Z"/>
          <path class="cls-60" d="m331.83,165.3c-.05-.74-.43-1.41-1.05-1.81l-.85-.48c-.66-.33-1.43-.33-2.09,0l-13.04,7.54c-.61.4-1,1.07-1.04,1.81v14.36c.03.74.43,1.41,1.04,1.81l.85.5c.66.33,1.43.33,2.09,0l4.2-2.42,1.5,2.59c.06.1.2.15.3.08.05-.02.08-.07.1-.13l1.58-4.57,5.37-3.11c.61-.4,1-1.08,1.04-1.81v-14.36h0Z"/>
          <path class="cls-22" d="m313.76,186.72c.03.74.43,1.41,1.04,1.81l.85.5c.6.3,1.29.33,1.91.08-.5.18-.86-.09-.86-.69v-14.36c.01-.37.12-.72.31-1.03l-2.94-1.7c-.18.31-.29.67-.3,1.03v14.36h-.01Z"/>
          <path class="cls-15" d="m331.81,165.02c-.12-.44-.53-.59-1-.31l-13.06,7.55c-.31.2-.57.46-.74.78l-2.94-1.7c.17-.32.43-.59.74-.77l13.04-7.55c.66-.33,1.43-.33,2.09,0l.85.5c.53.35.89.89,1,1.51h.01Z"/>
          <g id="freepik----inject-2">
            <path class="cls-44" d="m318.63,179.7c0-.1.01-.21.05-.3.05-.09.09-.18.15-.28l2.84-4.59s.02-.03.05-.06l.03-.02s.07-.02.1,0c.03.03.05.09.05.14v1.76c0,.13-.02.25-.08.37-.05.08-.09.16-.14.24l-1.46,2.23,1.46.67s.1.03.14.07c.06.03.08.13.08.27v1.26c0,.07-.01.13-.05.18-.02.06-.06.1-.1.13h-.08l-2.84-1.29c-.06-.02-.12-.06-.15-.1-.05-.07-.06-.15-.05-.24v-.46.03Z"/>
            <path class="cls-44" d="m324.81,172.62c.02-.09.06-.2.1-.29s.12-.17.21-.22l.95-.57s.08-.02.12,0c.03.03.05.09.05.14v.1l-2.4,10.22c-.02.09-.06.18-.1.28s-.12.17-.21.23l-.93.54s-.08.02-.12,0c-.03-.03-.05-.09-.05-.14v-.1l2.38-10.19h.01Z"/>
            <path class="cls-44" d="m330.02,174.26c0,.1-.01.21-.05.3-.05.09-.09.18-.15.28l-2.84,4.59-.05.05-.03.02s-.08.02-.1,0c-.03-.03-.05-.09-.05-.14v-1.78c0-.13.02-.25.08-.36.06-.09.1-.17.15-.24l1.25-1.91-1.25-.47s-.1-.05-.15-.07c-.06-.03-.08-.13-.08-.28v-1.76c0-.07.01-.13.05-.18.02-.05.06-.09.1-.13h.08l2.84,1.29c.14.03.23.18.21.32v.47h-.01Z"/>
          </g>
        </g>
      </g>
      <g id="freepik--text-boxes--inject-2">
        <g id="freepik--text-box--inject-2">
          <g id="freepik----inject-2-2">
            <g id="freepik--speech-bubble--inject-2-3">
              <g id="freepik--speach-bubble--inject-2">
                <path class="cls-70" d="m292.13,163.52l-17.46,10.06c-.25.16-.42.44-.44.75v9.75c0,.31.17.6.44.76l1.72.97c.28.14.6.14.86,0l17.46-10.04c.25-.17.42-.45.44-.75v-9.77c-.01-.3-.17-.58-.44-.75l-1.72-.97c-.28-.14-.6-.14-.86,0Z"/>
                <path class="cls-56" d="m295.16,165.15c-.03-.22-.21-.3-.43-.17l-17.46,10.06c-.13.08-.23.2-.31.32l-2.59-1.49c.07-.13.17-.24.3-.32l17.46-10.04c.28-.14.6-.14.86,0l1.72.97c.23.15.39.39.44.67h.01Z"/>
                <path class="cls-53" d="m294.73,164.98l-17.46,10.04c-.25.17-.42.45-.43.75v9.76c0,.28.2.39.43.25l17.46-10.04c.25-.17.42-.45.44-.75v-9.76c0-.28-.2-.39-.44-.25Z"/>
              </g>
            </g>
          </g>
          <path class="cls-42" d="m281.16,177.54v1.46c0,.1.02.21.05.31.02.09.06.17.13.24.06.06.13.09.21.09.12,0,.23-.03.32-.1.13-.07.23-.15.32-.25.15-.16.27-.36.32-.57.02-.09.05-.18.06-.25.01-.08.03-.16.06-.23.02-.06.07-.1.13-.13l.72-.43s.06-.02.09,0c.02.03.03.07.03.12,0,.31-.05.61-.14.9-.09.31-.21.6-.37.88-.15.28-.33.53-.55.77-.2.23-.43.42-.68.58-.22.14-.46.22-.72.23-.2,0-.39-.07-.54-.2-.16-.15-.28-.33-.35-.54-.08-.27-.13-.54-.14-.82v-1.52c0-.32.06-.66.14-.97.08-.32.2-.63.35-.93.15-.29.32-.57.54-.82.21-.24.45-.44.72-.6.21-.13.44-.21.68-.23.2-.01.38.03.55.14.16.12.29.27.37.46.09.23.14.48.14.74,0,.06-.01.1-.03.15-.02.05-.05.08-.09.1l-.73.43c-.07.03-.1.05-.13.01-.03-.05-.06-.1-.06-.15-.01-.07-.03-.13-.06-.18-.02-.06-.07-.12-.12-.15-.06-.03-.13-.06-.2-.05-.12,0-.23.05-.32.12-.13.07-.23.16-.32.27-.08.1-.15.22-.21.35s-.09.25-.13.39c-.02.14-.03.27-.03.4h-.01Z"/>
          <path class="cls-42" d="m285.9,172.43c.2-.13.42-.2.65-.22.18-.01.36.02.52.12.15.08.27.21.35.36s.13.32.14.48c0,.06-.01.1-.03.15-.01.05-.05.08-.08.1l-.73.43s-.08.03-.13.03c-.03,0-.07-.02-.09-.05l-.05-.06s-.07-.06-.1-.07c-.06-.01-.12-.01-.17,0-.08.01-.17.05-.24.09-.07.05-.14.09-.21.14-.06.05-.12.1-.17.17-.05.06-.09.13-.13.21-.03.08-.05.16-.05.24,0,.07.01.13.06.18.05.05.12.06.17.06.12,0,.22-.02.32-.05l.51-.14c.17-.05.36-.07.53-.07.14,0,.28.06.38.15.12.1.2.23.23.38.06.21.08.43.07.65,0,.29-.05.58-.13.85s-.21.54-.36.8-.33.48-.54.69c-.21.21-.44.38-.69.53-.21.13-.45.22-.69.24-.18.02-.37,0-.54-.09-.15-.08-.28-.21-.36-.37-.09-.17-.14-.37-.14-.57,0-.06.01-.1.03-.15.01-.05.05-.08.08-.1l.73-.43s.08-.03.13-.03c.03,0,.06.02.09.03.02.02.05.05.07.07.03.03.07.07.12.09.06.02.13.03.18.03.1-.01.2-.05.28-.1.18-.1.35-.23.5-.38.13-.13.2-.3.2-.47,0-.07-.02-.13-.07-.17-.07-.03-.14-.05-.22-.03-.13.01-.25.03-.37.07-.15.05-.32.09-.53.14-.29.12-.61.06-.84-.15-.21-.3-.3-.67-.27-1.03,0-.27.03-.52.1-.77.08-.27.18-.53.32-.77.14-.25.3-.48.5-.69.18-.21.42-.39.66-.53h.02Z"/>
          <path class="cls-42" d="m289.93,170.1c.2-.13.42-.2.65-.22.17,0,.36.02.52.12.14.08.25.21.32.36.08.15.13.32.13.51,0,.06-.01.1-.03.15-.01.05-.05.08-.08.1l-.73.43s-.08.03-.13.03c-.03,0-.07-.02-.09-.05l-.05-.06s-.07-.05-.1-.07c-.06-.01-.12-.01-.17,0-.09.01-.17.05-.24.09-.07.05-.14.09-.21.14s-.13.1-.17.17c-.05.06-.09.13-.12.21-.03.08-.05.16-.05.24,0,.07.01.13.05.18.05.05.12.07.17.06.12,0,.22-.02.32-.05l.51-.14c.18-.06.38-.09.58-.08.14,0,.28.06.38.14.12.1.2.24.23.38.06.21.08.43.07.65,0,.29-.05.58-.13.85s-.21.55-.36.8c-.15.25-.33.48-.54.69s-.44.38-.69.53c-.21.13-.45.22-.69.24-.18.02-.37-.01-.54-.09-.15-.08-.28-.21-.36-.37-.09-.17-.14-.37-.14-.57,0-.06.01-.1.03-.15.01-.05.05-.08.08-.1l.73-.43s.08-.03.13-.05c.03,0,.06.02.09.03.02.02.05.05.07.07.03.03.07.07.12.09.06.03.13.05.18.03.1,0,.2-.05.28-.1.18-.1.35-.23.5-.38.13-.13.2-.29.2-.47,0-.07-.02-.13-.07-.17-.07-.03-.14-.05-.22-.03-.13,0-.25.03-.37.07-.15.05-.33.08-.53.14-.29.12-.61.06-.84-.15-.21-.3-.3-.67-.27-1.03,0-.27.03-.52.1-.77.08-.27.18-.53.32-.77.14-.25.3-.48.5-.69.18-.21.4-.38.65-.52h.02Z"/>
        </g>
        <g id="freepik--text-box--inject-2-2">
          <g id="freepik----inject-2-3">
            <g id="freepik--speech-bubble--inject-2-4">
              <g id="freepik--speach-bubble--inject-2-2">
                <path class="cls-70" d="m292.13,183.77l-17.46,10.04c-.25.17-.42.45-.44.75v9.75c.01.3.17.58.44.75l1.72.97c.28.14.6.14.86,0l17.46-10.04c.25-.17.42-.45.44-.75v-9.76c-.01-.3-.17-.58-.44-.75l-1.72-.97c-.28-.14-.6-.13-.86,0h0Z"/>
                <path class="cls-56" d="m295.16,185.42c-.03-.22-.21-.3-.43-.17l-17.46,10.04c-.13.08-.23.2-.31.32l-2.59-1.49c.07-.13.17-.23.3-.31l17.46-10.04c.28-.14.6-.14.86,0l1.72.97c.24.15.39.39.44.67h.01Z"/>
                <path class="cls-53" d="m294.73,185.24l-17.46,10.04c-.25.17-.42.45-.43.75v9.76c0,.28.2.39.43.25l17.46-10.04c.25-.17.42-.45.44-.75v-9.77c0-.27-.2-.38-.44-.24Z"/>
              </g>
            </g>
          </g>
          <path class="cls-42" d="m281.24,195.46s.08-.02.1,0c.03.03.05.09.05.14v5.55c0,.07-.01.13-.05.18-.02.06-.06.1-.1.13l-.73.43s-.08.02-.1,0c-.03-.03-.05-.08-.05-.14v-2.1l-1.23.72v2.1c0,.07-.01.13-.05.2-.02.05-.06.09-.1.13l-.73.43s-.08.02-.1,0c-.03-.03-.05-.09-.05-.14v-5.55c0-.07.01-.13.05-.2.02-.06.06-.09.1-.13l.73-.43s.08-.02.1,0c.03.03.05.09.05.14v2.06l1.23-.72v-2.06c0-.07.01-.13.05-.18.02-.06.06-.1.1-.13l.73-.43Z"/>
          <path class="cls-42" d="m285.31,193.11s.08-.02.1,0c.03.03.05.08.05.14v.91c0,.07-.01.13-.05.18-.02.06-.06.1-.1.14l-.97.57v4.41c0,.07-.01.13-.05.2-.02.05-.06.09-.1.13l-.73.43s-.08.02-.1,0c-.03-.03-.05-.09-.05-.14v-4.41l-.97.57s-.08.02-.1,0c-.03-.03-.05-.09-.05-.14v-.91c0-.07.01-.13.05-.2.02-.06.06-.09.1-.13l2.98-1.73h-.01Z"/>
          <path class="cls-42" d="m287.87,196.13s-.06-.06-.08-.09l-.52-1.12v2.84c0,.07-.01.13-.05.18-.02.06-.06.1-.1.13l-.73.43s-.08.02-.1,0c-.03-.03-.05-.08-.05-.14v-5.56c0-.07.01-.13.05-.18.02-.06.06-.1.1-.13l.65-.37c.07-.05.13-.05.16,0,.02.03.06.06.07.09l.9,1.86.9-2.89c.02-.06.05-.13.07-.18.03-.08.09-.15.17-.2l.65-.37s.07-.02.1,0c.03.03.05.09.05.14v5.55c0,.07-.01.13-.05.2-.02.05-.06.09-.1.13l-.73.43s-.08.02-.1,0c-.03-.03-.05-.09-.05-.14v-2.84l-.53,1.72c-.02.06-.05.13-.07.18s-.07.12-.14.15l-.36.21s-.09.05-.13,0h.01Z"/>
          <path class="cls-42" d="m293.92,192.79s.08-.02.1,0c.03.03.05.08.05.14v.91c0,.07-.01.13-.05.18-.02.06-.06.1-.1.13l-2.59,1.49s-.08.02-.1,0c-.03-.03-.05-.08-.05-.14v-5.55c0-.07.01-.13.05-.18.02-.06.06-.1.1-.13l.73-.43s.08-.02.1,0c.03.03.05.09.05.14v4.41l1.72-.98h0Z"/>
        </g>
        <g id="freepik--text-box--inject-2-3">
          <g id="freepik----inject-2-4">
            <g id="freepik--speech-bubble--inject-2-5">
              <g id="freepik--speach-bubble--inject-2-3">
                <path class="cls-70" d="m292.13,204.03l-17.46,10.06c-.25.16-.42.44-.44.75v9.75c.01.3.17.58.44.75l1.72.97c.28.14.6.14.86,0l17.46-10.06c.25-.16.42-.44.44-.75v-9.75c-.01-.3-.17-.59-.44-.75l-1.72-.97c-.28-.14-.6-.14-.86,0Z"/>
                <path class="cls-56" d="m295.16,205.67c-.03-.22-.21-.3-.43-.17l-17.46,10.04c-.13.08-.23.2-.31.32l-2.59-1.49c.07-.13.17-.24.3-.32l17.46-10.04c.28-.14.6-.14.86,0l1.72.97c.24.15.4.4.44.69h.01Z"/>
                <path class="cls-53" d="m294.73,205.5l-17.46,10.04c-.25.17-.42.45-.43.75v9.75c0,.28.2.39.43.25l17.46-10.06c.25-.16.42-.44.44-.75v-9.73c0-.28-.2-.39-.44-.25Z"/>
              </g>
            </g>
          </g>
          <path class="cls-42" d="m281.49,217.86v1.46c0,.12.02.23.05.35.02.09.06.17.13.24.06.06.13.09.21.09.12,0,.23-.03.32-.1.12-.07.23-.15.32-.24.08-.09.14-.18.2-.29.05-.09.09-.18.12-.29.02-.08.05-.17.06-.25s.03-.16.06-.23c.03-.06.07-.1.13-.13l.73-.43s.06-.02.09,0c.02.03.03.07.03.12,0,.31-.05.61-.14.9-.09.31-.21.6-.37.88-.15.28-.33.53-.54.77-.2.22-.43.42-.68.57-.22.14-.46.22-.72.23-.2,0-.39-.07-.54-.2-.16-.15-.28-.33-.35-.54-.08-.27-.13-.54-.14-.82v-1.52c0-.32.06-.66.14-.97.08-.32.2-.63.35-.93.15-.29.32-.57.54-.82.21-.24.45-.44.72-.6.21-.13.44-.21.68-.23.2-.01.38.03.54.14.17.12.3.27.37.46.09.24.14.48.14.75,0,.06-.01.1-.03.15-.02.05-.05.08-.09.1l-.73.43c-.07.03-.1.05-.13.02-.03-.05-.06-.1-.06-.16-.01-.07-.03-.13-.06-.18-.02-.06-.07-.12-.12-.15-.06-.03-.13-.06-.2-.05-.12,0-.23.05-.32.12-.13.07-.23.16-.32.27-.08.1-.15.22-.21.35s-.09.25-.13.39c-.02.13-.05.25-.05.38v-.02Z"/>
          <path class="cls-42" d="m286.61,216.72v1.42c0,.07-.01.13-.05.2-.02.05-.06.09-.1.13l-.7.4s-.08.02-.1,0c-.03-.03-.05-.09-.05-.14v-1.42l-.86.5s-.08.02-.1,0c-.03-.03-.05-.09-.05-.14v-.88c0-.07.01-.13.05-.18.02-.06.06-.1.1-.14l.86-.5v-1.42c0-.07.01-.13.05-.18.02-.06.06-.1.1-.13l.72-.4s.07-.02.1,0c.03.03.05.08.05.14v1.42l.85-.5s.08-.02.1,0c.03.03.05.08.05.14v.86c0,.07-.01.13-.05.18-.02.06-.06.1-.1.13l-.86.51h0Z"/>
          <path class="cls-42" d="m290.3,214.58v1.42c0,.07-.01.13-.05.18-.02.06-.06.1-.1.13l-.7.4s-.08.02-.1,0c-.03-.03-.05-.08-.05-.14v-1.42l-.86.5s-.07.02-.1,0c-.03-.03-.05-.08-.05-.14v-.89c0-.07.01-.13.05-.18.02-.06.06-.1.1-.13l.86-.5v-1.42c0-.07.01-.13.05-.2.02-.06.06-.09.1-.13l.7-.4s.08-.02.1,0c.03.03.05.09.05.14v1.42l.85-.5s.08-.02.1,0c.03.03.05.09.05.14v.86c0,.07-.01.13-.05.18-.02.06-.06.1-.1.13l-.85.52h0Z"/>
        </g>
      </g>
    </g>
  </g>
  <g>
    <rect class="cls-57" x="429.11" y="41.69" width="136.52" height="57.85" rx="11.81" ry="11.81"/>
    <circle class="cls-43" cx="455.69" cy="70" r="16.48" transform="translate(313.58 508.58) rotate(-80.78)"/>
    <g class="cls-11">
      <text class="cls-10" transform="translate(485.3 69.7)"><tspan x="0" y="0">A</tspan></text>
      <text class="cls-10" transform="translate(492.81 69.7)"><tspan x="0" y="0">s</tspan></text>
      <text class="cls-6" transform="translate(498.48 69.7)"><tspan x="0" y="0">y</tspan></text>
      <text class="cls-10" transform="translate(503.97 69.7)"><tspan x="0" y="0">a</tspan></text>
      <text class="cls-10" transform="translate(509.97 69.7)"><tspan x="0" y="0">m</tspan></text>
    </g>
    <g class="cls-28">
      <text class="cls-5" transform="translate(485.3 79.67)"><tspan x="0" y="0">T</tspan></text>
      <text class="cls-12" transform="translate(489.02 79.67)"><tspan x="0" y="0">e</tspan></text>
      <text class="cls-12" transform="translate(492.8 79.67)"><tspan x="0" y="0">a</tspan></text>
      <text class="cls-9" transform="translate(496.54 79.67)"><tspan x="0" y="0">m </tspan></text>
      <text class="cls-7" transform="translate(504.16 79.67)"><tspan x="0" y="0">C</tspan></text>
      <text class="cls-9" transform="translate(508.75 79.67)"><tspan x="0" y="0">r</tspan></text>
      <text class="cls-12" transform="translate(511.3 79.67)"><tspan x="0" y="0">e</tspan></text>
      <text class="cls-9" transform="translate(515.07 79.67)"><tspan x="0" y="0">a</tspan></text>
      <text class="cls-9" transform="translate(518.81 79.67)"><tspan x="0" y="0">t</tspan></text>
      <text class="cls-9" transform="translate(521.16 79.67)"><tspan x="0" y="0">i</tspan></text>
      <text class="cls-9" transform="translate(523.04 79.67)"><tspan x="0" y="0">v</tspan></text>
      <text class="cls-9" transform="translate(526.43 79.67)"><tspan x="0" y="0">e </tspan></text>
      <text class="cls-9" transform="translate(531.83 79.67)"><tspan x="0" y="0">D</tspan></text>
      <text class="cls-9" transform="translate(536.34 79.67)"><tspan x="0" y="0">i</tspan></text>
      <text class="cls-9" transform="translate(538.2 79.67)"><tspan x="0" y="0">gi</tspan></text>
      <text class="cls-7" transform="translate(544.05 79.67)"><tspan x="0" y="0">t</tspan></text>
      <text class="cls-9" transform="translate(546.47 79.67)"><tspan x="0" y="0">a</tspan></text>
      <text class="cls-9" transform="translate(550.19 79.67)"><tspan x="0" y="0">l</tspan></text>
    </g>
  </g>
  <g>
    <rect class="cls-73" x="428.23" y="176.15" width="233.09" height="138.88" rx="14" ry="14"/>
    <path class="cls-45" d="m527,239.97c0,21.05-17.06,38.11-38.12,38.11s-38.12-17.06-38.12-38.11,17.06-38.12,38.12-38.12,38.12,17.06,38.12,38.12Zm-63.1,0c0,13.8,11.18,24.98,24.98,24.98s24.98-11.18,24.98-24.98-11.18-24.98-24.98-24.98-24.98,11.18-24.98,24.98Z"/>
    <path class="cls-71" d="m488.88,201.85c-5.57,0-11.07,1.22-16.12,3.57-5.05,2.35-9.51,5.79-13.09,10.05-3.58,4.27-6.17,9.26-7.62,14.64-1.44,5.38-1.69,11.01-.71,16.49.97,5.49,3.13,10.69,6.33,15.24,3.19,4.56,7.35,8.36,12.18,11.14,4.82,2.78,10.2,4.47,15.74,4.95,5.55.48,11.13-.26,16.36-2.17l-4.5-12.34c-3.43,1.25-7.09,1.73-10.72,1.42-3.64-.32-7.15-1.43-10.32-3.24-3.16-1.82-5.88-4.31-7.98-7.3s-3.51-6.4-4.15-9.99c-.63-3.6-.48-7.28.47-10.81s2.65-6.8,4.99-9.59c2.34-2.8,5.27-5.04,8.58-6.59,3.31-1.54,6.91-2.34,10.56-2.34v-13.13h0Z"/>
    <path class="cls-69" d="m488.88,201.85c-5.48,0-10.9,1.18-15.88,3.47s-9.42,5.62-13,9.76-6.22,9.03-7.75,14.29c-1.52,5.27-1.9,10.8-1.09,16.22l13-1.94c-.53-3.55-.28-7.18.71-10.63,1-3.45,2.73-6.64,5.07-9.37,2.34-2.72,5.25-4.9,8.52-6.4s6.81-2.27,10.41-2.27v-13.13h0Z"/>
    <rect class="cls-45" x="546.27" y="197.11" width="13.12" height="3.78"/>
    <rect class="cls-71" x="546.27" y="250.91" width="13.12" height="3.78"/>
    <rect class="cls-69" x="599.46" y="197.11" width="13.12" height="3.78"/>
    <rect class="cls-51" x="637.65" y="247.06" width="51.09" height="46.19"/>
    <rect class="cls-51" x="484.03" y="295.88" width="40.59" height="40.59"/>
    <g class="cls-11">
      <text class="cls-1" transform="translate(598.25 221.33)"><tspan x="0" y="0">2</tspan></text>
      <text class="cls-1" transform="translate(608.06 221.33)"><tspan x="0" y="0">5</tspan></text>
      <text class="cls-2" transform="translate(617.66 221.33)"><tspan x="0" y="0">%</tspan></text>
      <text class="cls-29" transform="translate(598.25 236.03)"><tspan x="0" y="0">S</tspan></text>
      <text class="cls-4" transform="translate(606.38 236.03)"><tspan x="0" y="0">a</tspan></text>
      <text class="cls-32" transform="translate(613.24 236.03)"><tspan x="0" y="0">f</tspan></text>
      <text class="cls-29" transform="translate(617.9 236.03)"><tspan x="0" y="0">e</tspan></text>
    </g>
    <g class="cls-11">
      <text class="cls-16" transform="translate(542.76 221.33)"><tspan x="0" y="0">4</tspan></text>
      <text class="cls-1" transform="translate(552.24 221.33)"><tspan x="0" y="0">7</tspan></text>
      <text class="cls-2" transform="translate(562.03 221.33)"><tspan x="0" y="0">%</tspan></text>
      <text class="cls-21" transform="translate(542.76 236.03)"><tspan x="0" y="0">T</tspan></text>
      <text class="cls-29" transform="translate(550.89 236.03)"><tspan x="0" y="0">h</tspan></text>
      <text class="cls-4" transform="translate(558.24 236.03)"><tspan x="0" y="0">r</tspan></text>
      <text class="cls-29" transform="translate(563.19 236.03)"><tspan x="0" y="0">e</tspan></text>
      <text class="cls-4" transform="translate(570.27 236.03)"><tspan x="0" y="0">a</tspan></text>
      <text class="cls-29" transform="translate(577.14 236.03)"><tspan x="0" y="0">t</tspan></text>
    </g>
    <g class="cls-11">
      <text class="cls-1" transform="translate(543.33 274.67)"><tspan x="0" y="0">2</tspan></text>
      <text class="cls-1" transform="translate(553.14 274.67)"><tspan x="0" y="0">8</tspan></text>
      <text class="cls-2" transform="translate(562.84 274.67)"><tspan x="0" y="0">%</tspan></text>
      <text class="cls-29" transform="translate(543.33 289.37)"><tspan x="0" y="0">H</tspan></text>
      <text class="cls-4" transform="translate(552.46 289.37)"><tspan x="0" y="0">a</tspan></text>
      <text class="cls-29" transform="translate(559.31 289.37)"><tspan x="0" y="0">c</tspan></text>
      <text class="cls-32" transform="translate(566.1 289.37)"><tspan x="0" y="0">k</tspan></text>
      <text class="cls-29" transform="translate(572.92 289.37)"><tspan x="0" y="0">e</tspan></text>
      <text class="cls-29" transform="translate(580.04 289.37)"><tspan x="0" y="0">d</tspan></text>
    </g>
  </g>
  <g>
    <rect class="cls-57" x="112.78" y="219.51" width="132.3" height="58.77" rx="13.16" ry="13.16"/>
    <circle class="cls-76" cx="136.96" cy="248.92" r="16.48"/>
    <g class="cls-11">
      <text class="cls-3" transform="translate(167.78 248.9)"><tspan x="0" y="0">A</tspan></text>
      <text class="cls-10" transform="translate(175.18 248.9)"><tspan x="0" y="0">d</tspan></text>
      <text class="cls-10" transform="translate(181.48 248.9)"><tspan x="0" y="0">e</tspan></text>
      <text class="cls-10" transform="translate(187.56 248.9)"><tspan x="0" y="0">l</tspan></text>
      <text class="cls-10" transform="translate(190.47 248.9)"><tspan x="0" y="0">i</tspan></text>
      <text class="cls-10" transform="translate(193.39 248.9)"><tspan x="0" y="0">a</tspan></text>
    </g>
    <g class="cls-28">
      <text class="cls-5" transform="translate(165.65 257.72)"><tspan x="0" y="0">T</tspan></text>
      <text class="cls-12" transform="translate(169.38 257.72)"><tspan x="0" y="0">e</tspan></text>
      <text class="cls-36" transform="translate(173.15 257.72)"><tspan x="0" y="0">a</tspan></text>
      <text class="cls-9" transform="translate(176.9 257.72)"><tspan x="0" y="0">m </tspan></text>
      <text class="cls-7" transform="translate(184.52 257.72)"><tspan x="0" y="0">C</tspan></text>
      <text class="cls-9" transform="translate(189.1 257.72)"><tspan x="0" y="0">r</tspan></text>
      <text class="cls-12" transform="translate(191.66 257.72)"><tspan x="0" y="0">e</tspan></text>
      <text class="cls-9" transform="translate(195.43 257.72)"><tspan x="0" y="0">a</tspan></text>
      <text class="cls-9" transform="translate(199.17 257.72)"><tspan x="0" y="0">t</tspan></text>
      <text class="cls-9" transform="translate(201.52 257.72)"><tspan x="0" y="0">i</tspan></text>
      <text class="cls-9" transform="translate(203.39 257.72)"><tspan x="0" y="0">v</tspan></text>
      <text class="cls-9" transform="translate(206.79 257.72)"><tspan x="0" y="0">e </tspan></text>
      <text class="cls-9" transform="translate(212.19 257.72)"><tspan x="0" y="0">D</tspan></text>
      <text class="cls-9" transform="translate(216.7 257.72)"><tspan x="0" y="0">i</tspan></text>
      <text class="cls-9" transform="translate(218.56 257.72)"><tspan x="0" y="0">gi</tspan></text>
      <text class="cls-7" transform="translate(224.41 257.72)"><tspan x="0" y="0">t</tspan></text>
      <text class="cls-9" transform="translate(226.82 257.72)"><tspan x="0" y="0">a</tspan></text>
      <text class="cls-9" transform="translate(230.54 257.72)"><tspan x="0" y="0">l</tspan></text>
    </g>
  </g>
  <g>
    <rect class="cls-57" x="292.11" y="390.96" width="96.33" height="101.33" rx="11.81" ry="11.81"/>
    <circle class="cls-48" cx="340.64" cy="424.69" r="20.52"/>
    <g class="cls-11">
      <text class="cls-10" transform="translate(321.87 464.27)"><tspan x="0" y="0">J</tspan></text>
      <text class="cls-10" transform="translate(328.18 464.27)"><tspan x="0" y="0">uan</tspan></text>
      <text class="cls-10" transform="translate(346.77 464.27)"><tspan x="0" y="0">da</tspan></text>
    </g>
    <g class="cls-28">
      <text class="cls-5" transform="translate(307.51 474.3)"><tspan x="0" y="0">T</tspan></text>
      <text class="cls-12" transform="translate(311.24 474.3)"><tspan x="0" y="0">e</tspan></text>
      <text class="cls-12" transform="translate(315.01 474.3)"><tspan x="0" y="0">a</tspan></text>
      <text class="cls-9" transform="translate(318.75 474.3)"><tspan x="0" y="0">m </tspan></text>
      <text class="cls-7" transform="translate(326.38 474.3)"><tspan x="0" y="0">C</tspan></text>
      <text class="cls-9" transform="translate(330.96 474.3)"><tspan x="0" y="0">r</tspan></text>
      <text class="cls-12" transform="translate(333.52 474.3)"><tspan x="0" y="0">e</tspan></text>
      <text class="cls-9" transform="translate(337.29 474.3)"><tspan x="0" y="0">a</tspan></text>
      <text class="cls-9" transform="translate(341.02 474.3)"><tspan x="0" y="0">t</tspan></text>
      <text class="cls-9" transform="translate(343.38 474.3)"><tspan x="0" y="0">i</tspan></text>
      <text class="cls-9" transform="translate(345.25 474.3)"><tspan x="0" y="0">v</tspan></text>
      <text class="cls-9" transform="translate(348.65 474.3)"><tspan x="0" y="0">e </tspan></text>
      <text class="cls-9" transform="translate(354.05 474.3)"><tspan x="0" y="0">D</tspan></text>
      <text class="cls-9" transform="translate(358.55 474.3)"><tspan x="0" y="0">i</tspan></text>
      <text class="cls-9" transform="translate(360.42 474.3)"><tspan x="0" y="0">gi</tspan></text>
      <text class="cls-7" transform="translate(366.27 474.3)"><tspan x="0" y="0">t</tspan></text>
      <text class="cls-9" transform="translate(368.68 474.3)"><tspan x="0" y="0">a</tspan></text>
      <text class="cls-9" transform="translate(372.4 474.3)"><tspan x="0" y="0">l</tspan></text>
    </g>
  </g>
</svg>