<?xml version="1.0" encoding="UTF-8"?>
<svg id="Layer_1" data-name="Layer 1" xmlns="http://www.w3.org/2000/svg" viewBox="0 0 1080 427.68">
  <defs>
    <style>
      .cls-1 {
        font-size: 219.66px;
      }

      .cls-2 {
        fill: #162f5b;
      }

      .cls-3 {
        font-family: ArialMT, Arial;
      }

      .cls-3, .cls-4, .cls-5 {
        fill: #224082;
      }

      .cls-6 {
        fill: none;
        stroke: #f15a29;
        stroke-miterlimit: 10;
      }

      .cls-7 {
        letter-spacing: 0em;
      }

      .cls-7, .cls-5 {
        font-family: Arial-BoldMT, Arial;
        font-weight: 700;
      }

      .cls-7, .cls-8 {
        fill: #f46800;
      }

      .cls-5 {
        font-size: 29.78px;
        letter-spacing: .08em;
      }
    </style>
  </defs>
  <g>
    <path class="cls-4" d="m233.76,302.76c.33.2.67.41,1.02.61-.5.57-.67.85-.91,1.02-11.31,7.81-23.07,14.77-36.12,19.27-1.26.44-2.78.67-4.07.41-3.22-.63-6.5-1.31-9.57-2.48-13-4.89-24.08-12.87-33.47-22.86-7.94-8.46-14.9-17.83-22.34-26.75-.78-.93-1.85-1.91-2.94-2.15-2-.46-4.13-.35-6.2-.56-13.38-1.31-26.79-2.65-40.17-3.96-4.04-.39-8.09-.74-12.51-1.15.33,1.04.46,1.72.72,2.33,5.05,12.2,10.85,24.03,18.14,35.02,15.74,23.68,35.39,43.43,59.52,58.55,13.94,8.74,28.75,15.66,44.54,20.42,2.96.89,5.74,1.09,8.66-.44,2.63-1.37,5.57-2.17,8.33-3.35,27.6-11.77,52.52-27.55,73.03-49.69l-45.65-24.25Z"/>
    <path class="cls-8" d="m121.45,160.67c18.03,10.03,36.06,20.05,54.09,30.06,33.3,18.51,66.59,37.04,99.89,55.55,12.64,7.03,25.29,14.07,37.97,21.03,1.87,1.02,2.11,1.93,1,3.76-4.44,7.39-8.77,14.85-13.05,22.33-1.06,1.81-1.98,1.94-3.83.93-13.99-7.76-28.06-15.38-42.11-23.07-11.68-6.39-23.34-12.81-35.02-19.2-13.22-7.22-26.47-14.4-39.69-21.64-11.96-6.52-23.86-13.12-35.82-19.6-11.37-6.16-22.81-12.18-34.17-18.35-16.09-8.72-32.14-17.55-48.2-26.31-3.85-2.09-7.74-4.13-11.63-6.16-1.22-.63-1.76-1.43-1.76-2.89.04-11.33.07-22.68-.11-34.01,0-.33.02-.61.06-.89"/>
    <path class="cls-8" d="m279.41,327.01c.24-.26.5-.54.74-.8,6.24-6.81,12.09-13.98,18.16-20.96,1.17-1.35.3-1.81-.76-2.39-8.42-4.5-16.85-8.96-25.21-13.51-19.42-10.53-38.78-21.12-58.18-31.66-12.18-6.59-24.38-13.12-36.56-19.72-16.92-9.13-33.84-18.27-50.74-27.45-25.29-13.74-50.56-27.53-75.82-41.28-.5-.28-1.07-.39-1.8-.63-.07.89-.17,1.48-.17,2.07.15,11.03.35,22.07.44,33.08.02,2.37.96,3.92,2.98,5.04,4.5,2.5,8.92,5.18,13.5,7.57,28.77,15.03,57.57,30.03,86.38,44.97,12.5,6.48,25.05,12.88,37.6,19.25,11.9,6.02,23.88,11.94,35.8,17.92l.07.04c1.54.76,3.05,1.54,4.59,2.3,1.07.56,2.13,1.18,3.22,1.85l.11.06"/>
    <line class="cls-6" x1="225.77" y1="292.86" x2="225.1" y2="292.51"/>
    <polygon class="cls-2" points="331.57 169.45 280.89 174.05 280.76 147.78 331.57 169.45"/>
    <path class="cls-4" d="m338.63,122.13c0-.87-.91-2.13-1.7-2.52-3.41-1.59-6.98-2.85-10.42-4.37-11.98-5.24-23.9-10.59-35.89-15.77-20.23-8.77-40.56-17.38-60.77-26.19-11.7-5.09-23.27-10.48-34.93-15.7-.59-.26-1.5-.22-2.11.04-4.02,1.74-7.98,3.61-12,5.35-30.32,13.2-60.64,26.34-90.95,39.56-12.74,5.55-25.42,11.33-38.17,16.86-1.57.68-2.43,1.3-2.63,2.83l52.24,28.16c-.65-.37,1.98-1.52,2.41-1.68,15.36-6.48,30.77-12.92,46.13-19.42,13.79-5.85,27.58-11.74,41.37-17.64,1.87-.81,3.55-.8,5.48.07,7.44,3.33,14.92,6.55,22.42,9.76,20.79,8.9,41.56,17.79,62.37,26.62,0,0,0,0,.02,0l50.09,21.36h-.09s.01.01.01.01l-.51.04-50.08,4.55h0c-.51.05-1.09.1-1.79.15-15.96,1.13-31.93,2.22-47.91,3.26-13.35.87-26.71,1.63-40.08,2.44-.07.15-.15.31-.22.46.94.46,1.83.98,2.8,1.37,9.64,3.81,19.31,7.61,28.95,11.42,19.81,7.83,39.63,15.62,59.39,23.57,15.48,6.22,30.88,12.61,46.3,18.99,1.83.76,2.7.44,3.05-1.54,1.06-5.91,2.57-11.75,3.18-17.7,1.57-15.16,3.31-30.34,3.96-45.54.68-16.25.2-32.54.11-48.82Z"/>
  </g>
  <text class="cls-1" transform="translate(390.04 292.51)"><tspan class="cls-3" x="0" y="0">SIIP</tspan><tspan class="cls-7" x="415.09" y="0">ID</tspan></text>
  <text class="cls-5" transform="translate(401.46 352.74)"><tspan x="0" y="0">Sistem Informasi Insidentil Peretasan</tspan></text>
  <rect class="cls-4" x="820.09" y="87.32" width="31.31" height="31.31"/>
</svg>