<?xml version="1.0" encoding="UTF-8"?>
<svg id="Layer_1" data-name="Layer 1" xmlns="http://www.w3.org/2000/svg" viewBox="0 0 1203.36 1210.2">
  <defs>
    <style>
      .cls-1 {
        fill: #fff;
      }

      .cls-2 {
        fill: none;
        stroke: #f15a29;
        stroke-miterlimit: 10;
      }

      .cls-3 {
        fill: #67a5ef;
      }

      .cls-4 {
        fill: #f46800;
      }
    </style>
  </defs>
  <path class="cls-1" d="m748.69,921.79c1.23.75,2.46,1.5,3.76,2.26-1.85,2.12-2.46,3.14-3.35,3.76-41.75,28.84-85.15,54.53-133.32,71.14-4.65,1.64-10.25,2.46-15.03,1.5-11.89-2.32-23.99-4.85-35.33-9.16-47.97-18.04-88.9-47.49-123.55-84.39-29.32-31.23-55.01-65.81-82.48-98.75-2.87-3.42-6.83-7.04-10.87-7.93-7.38-1.71-15.24-1.3-22.89-2.05-49.41-4.85-98.88-9.77-148.29-14.62-14.9-1.44-29.86-2.73-46.2-4.24,1.23,3.83,1.71,6.36,2.67,8.61,18.66,45.03,40.04,88.7,66.97,129.29,58.09,87.4,130.66,160.32,219.7,216.15,51.46,32.25,106.13,57.81,164.42,75.37,10.93,3.28,21.18,4.03,31.98-1.64,9.7-5.06,20.57-8,30.75-12.37,101.89-43.46,193.87-101.68,269.58-183.41l-168.52-89.52Z"/>
  <path class="cls-4" d="m334.09,397.26c66.56,37.04,133.12,74.01,199.68,110.98,122.94,68.34,245.8,136.74,368.74,205.08,46.67,25.97,93.35,51.94,140.16,77.63,6.9,3.76,7.79,7.11,3.69,13.87-16.4,27.27-32.39,54.81-48.18,82.41-3.9,6.7-7.31,7.18-14.15,3.42-51.66-28.63-103.6-56.79-155.46-85.15-43.12-23.58-86.17-47.29-129.29-70.86-48.79-26.65-97.72-53.17-146.51-79.88-44.14-24.05-88.08-48.45-132.23-72.37-41.96-22.76-84.19-44.96-126.15-67.72-59.38-32.19-118.63-64.78-177.95-97.11-14.21-7.72-28.56-15.24-42.91-22.76-4.51-2.32-6.49-5.26-6.49-10.66.14-41.82.27-83.71-.41-125.53,0-1.23.07-2.26.21-3.28"/>
  <path class="cls-4" d="m917.2,1011.31c.89-.96,1.85-1.98,2.73-2.94,23.03-25.15,44.62-51.59,67.04-77.36,4.31-4.99,1.09-6.7-2.8-8.82-31.09-16.61-62.19-33.07-93.07-49.89-71.68-38.88-143.16-77.97-214.78-116.85-44.96-24.33-90-48.45-134.96-72.78-62.46-33.69-124.92-67.45-187.31-101.34-93.35-50.71-186.63-101.62-279.9-152.39-1.85-1.03-3.96-1.44-6.63-2.32-.27,3.28-.62,5.47-.62,7.65.55,40.73,1.3,81.46,1.64,122.12.07,8.75,3.55,14.49,11,18.59,16.61,9.23,32.94,19.13,49.82,27.95,106.19,55.49,212.52,110.84,318.86,165.99,46.13,23.92,92.46,47.56,138.79,71.07,43.94,22.21,88.15,44.08,132.16,66.15l.27.14c5.67,2.8,11.28,5.67,16.95,8.47,3.96,2.05,7.86,4.37,11.89,6.83l.41.21"/>
  <line class="cls-2" x1="719.17" y1="885.25" x2="716.71" y2="883.95"/>
  <polygon class="cls-3" points="1109.73 429.67 922.66 446.66 922.19 349.69 1109.73 429.67"/>
  <path class="cls-1" d="m1135.81,254.98c0-3.21-3.35-7.86-6.29-9.29-12.57-5.88-25.76-10.52-38.47-16.13-44.21-19.34-88.22-39.09-132.5-58.22-74.69-32.39-149.72-64.17-224.35-96.7-43.19-18.79-85.9-38.68-128.95-57.95-2.19-.96-5.53-.82-7.79.14-14.83,6.42-29.45,13.33-44.28,19.75-111.94,48.72-223.87,97.24-335.73,146.03-47.01,20.5-93.83,41.82-140.91,62.25-5.81,2.53-8.95,4.78-9.7,10.46l192.84,103.94c-2.39-1.37,7.31-5.6,8.88-6.22,56.72-23.92,113.58-47.7,170.29-71.68,50.91-21.59,101.82-43.32,152.73-65.12,6.9-3.01,13.12-2.94,20.23.27,27.47,12.3,55.08,24.19,82.76,36.01,76.74,32.87,153.41,65.67,230.22,98.27.02,0,.04.02.06.03l184.89,78.85-.34.03.04.02-1.89.15-184.88,16.79h0c-1.89.19-4.01.36-6.62.55-58.9,4.17-117.88,8.2-176.85,12.03-49.27,3.21-98.61,6.01-147.95,9.02-.27.55-.55,1.16-.82,1.71,3.49,1.71,6.77,3.62,10.32,5.06,35.6,14.08,71.27,28.09,106.88,42.16,73.12,28.91,146.31,57.68,219.22,86.99,57.13,22.96,113.98,46.54,170.91,70.11,6.77,2.8,9.98,1.64,11.27-5.67,3.9-21.8,9.5-43.39,11.75-65.33,5.81-55.97,12.23-112,14.62-168.11,2.53-60,.75-120.13.41-180.2Z"/>
</svg>